<mxfile host="app.diagrams.net" agent="Mozilla/5.0 (Windows NT 10.0; Win64; x64) AppleWebKit/537.36 (KHTML, like Gecko) Chrome/141.0.0.0 Safari/537.36 Edg/141.0.0.0" version="28.2.7" pages="2">
  <diagram name="ER (Final)" id="mdfvaOU4Q1oJ7WZqdE17">
    <mxGraphModel dx="5214" dy="1691" grid="1" gridSize="10" guides="1" tooltips="1" connect="1" arrows="1" fold="1" page="1" pageScale="1" pageWidth="850" pageHeight="1100" math="0" shadow="0">
      <root>
        <mxCell id="0" />
        <mxCell id="1" parent="0" />
        <mxCell id="KvxusKviVnBB3LbKlo5W-1" style="edgeStyle=none;rounded=0;orthogonalLoop=1;jettySize=auto;html=1;endArrow=none;startFill=0;" edge="1" parent="1" source="KvxusKviVnBB3LbKlo5W-10">
          <mxGeometry relative="1" as="geometry">
            <mxPoint x="-240" y="570" as="targetPoint" />
          </mxGeometry>
        </mxCell>
        <mxCell id="KvxusKviVnBB3LbKlo5W-2" value="1" style="edgeLabel;html=1;align=center;verticalAlign=middle;resizable=0;points=[];" vertex="1" connectable="0" parent="KvxusKviVnBB3LbKlo5W-1">
          <mxGeometry x="-0.5969" y="1" relative="1" as="geometry">
            <mxPoint as="offset" />
          </mxGeometry>
        </mxCell>
        <mxCell id="KvxusKviVnBB3LbKlo5W-3" value="" style="edgeStyle=none;rounded=0;orthogonalLoop=1;jettySize=auto;html=1;elbow=vertical;entryX=1;entryY=0.5;entryDx=0;entryDy=0;endArrow=none;endFill=0;exitX=0.006;exitY=0.868;exitDx=0;exitDy=0;exitPerimeter=0;" edge="1" parent="1" source="KvxusKviVnBB3LbKlo5W-10" target="KvxusKviVnBB3LbKlo5W-51">
          <mxGeometry relative="1" as="geometry">
            <mxPoint x="-280" y="480" as="sourcePoint" />
          </mxGeometry>
        </mxCell>
        <mxCell id="KvxusKviVnBB3LbKlo5W-4" value="1" style="edgeLabel;html=1;align=center;verticalAlign=middle;resizable=0;points=[];" vertex="1" connectable="0" parent="KvxusKviVnBB3LbKlo5W-3">
          <mxGeometry x="-0.8733" y="-4" relative="1" as="geometry">
            <mxPoint as="offset" />
          </mxGeometry>
        </mxCell>
        <mxCell id="KvxusKviVnBB3LbKlo5W-5" value="" style="edgeStyle=none;rounded=0;orthogonalLoop=1;jettySize=auto;html=1;elbow=vertical;endArrow=none;startFill=0;" edge="1" parent="1" source="KvxusKviVnBB3LbKlo5W-10" target="KvxusKviVnBB3LbKlo5W-55">
          <mxGeometry relative="1" as="geometry" />
        </mxCell>
        <mxCell id="KvxusKviVnBB3LbKlo5W-6" value="1" style="edgeLabel;html=1;align=center;verticalAlign=middle;resizable=0;points=[];" vertex="1" connectable="0" parent="KvxusKviVnBB3LbKlo5W-5">
          <mxGeometry x="-0.8627" y="1" relative="1" as="geometry">
            <mxPoint y="-1" as="offset" />
          </mxGeometry>
        </mxCell>
        <mxCell id="KvxusKviVnBB3LbKlo5W-7" style="rounded=0;orthogonalLoop=1;jettySize=auto;html=1;entryX=1;entryY=0.5;entryDx=0;entryDy=0;endArrow=none;endFill=0;" edge="1" parent="1" source="KvxusKviVnBB3LbKlo5W-10" target="KvxusKviVnBB3LbKlo5W-80">
          <mxGeometry relative="1" as="geometry">
            <mxPoint x="-360" y="450" as="targetPoint" />
          </mxGeometry>
        </mxCell>
        <mxCell id="KvxusKviVnBB3LbKlo5W-8" style="edgeStyle=none;rounded=0;orthogonalLoop=1;jettySize=auto;html=1;entryX=1;entryY=1;entryDx=0;entryDy=0;endArrow=none;endFill=0;" edge="1" parent="1" source="KvxusKviVnBB3LbKlo5W-10" target="KvxusKviVnBB3LbKlo5W-75">
          <mxGeometry relative="1" as="geometry" />
        </mxCell>
        <mxCell id="KvxusKviVnBB3LbKlo5W-9" style="edgeStyle=none;rounded=0;orthogonalLoop=1;jettySize=auto;html=1;entryX=0.5;entryY=1;entryDx=0;entryDy=0;endArrow=none;endFill=0;" edge="1" parent="1" source="KvxusKviVnBB3LbKlo5W-10" target="KvxusKviVnBB3LbKlo5W-77">
          <mxGeometry relative="1" as="geometry" />
        </mxCell>
        <mxCell id="KvxusKviVnBB3LbKlo5W-10" value="STUDENT" style="whiteSpace=wrap;html=1;rounded=0;" vertex="1" parent="1">
          <mxGeometry x="-290" y="449.98" width="70" height="30" as="geometry" />
        </mxCell>
        <mxCell id="KvxusKviVnBB3LbKlo5W-11" value="ADMIN" style="whiteSpace=wrap;html=1;rounded=0;" vertex="1" parent="1">
          <mxGeometry x="566.25" y="1277.98" width="70" height="30" as="geometry" />
        </mxCell>
        <mxCell id="KvxusKviVnBB3LbKlo5W-12" style="rounded=0;orthogonalLoop=1;jettySize=auto;html=1;entryX=0.5;entryY=0;entryDx=0;entryDy=0;endArrow=none;endFill=0;" edge="1" parent="1" source="KvxusKviVnBB3LbKlo5W-14" target="KvxusKviVnBB3LbKlo5W-111">
          <mxGeometry relative="1" as="geometry" />
        </mxCell>
        <mxCell id="KvxusKviVnBB3LbKlo5W-13" style="edgeStyle=none;rounded=0;orthogonalLoop=1;jettySize=auto;html=1;entryX=0;entryY=0.5;entryDx=0;entryDy=0;endArrow=none;endFill=0;" edge="1" parent="1" source="KvxusKviVnBB3LbKlo5W-14" target="KvxusKviVnBB3LbKlo5W-108">
          <mxGeometry relative="1" as="geometry" />
        </mxCell>
        <mxCell id="KvxusKviVnBB3LbKlo5W-14" value="DEAN" style="whiteSpace=wrap;html=1;rounded=0;" vertex="1" parent="1">
          <mxGeometry x="568.5" y="730" width="70" height="30" as="geometry" />
        </mxCell>
        <mxCell id="KvxusKviVnBB3LbKlo5W-15" style="edgeStyle=none;rounded=0;orthogonalLoop=1;jettySize=auto;html=1;entryX=0.5;entryY=0;entryDx=0;entryDy=0;elbow=vertical;endArrow=none;startFill=0;exitX=0.582;exitY=1.003;exitDx=0;exitDy=0;exitPerimeter=0;" edge="1" parent="1" source="KvxusKviVnBB3LbKlo5W-17" target="KvxusKviVnBB3LbKlo5W-48">
          <mxGeometry relative="1" as="geometry">
            <mxPoint x="340" y="450" as="sourcePoint" />
          </mxGeometry>
        </mxCell>
        <mxCell id="KvxusKviVnBB3LbKlo5W-16" value="1" style="edgeLabel;html=1;align=center;verticalAlign=middle;resizable=0;points=[];" vertex="1" connectable="0" parent="KvxusKviVnBB3LbKlo5W-15">
          <mxGeometry x="-0.8159" y="5" relative="1" as="geometry">
            <mxPoint x="-6" y="10" as="offset" />
          </mxGeometry>
        </mxCell>
        <mxCell id="KvxusKviVnBB3LbKlo5W-17" value="LECTURER" style="whiteSpace=wrap;html=1;rounded=0;" vertex="1" parent="1">
          <mxGeometry x="223.5" y="416.8" width="85" height="30" as="geometry" />
        </mxCell>
        <mxCell id="KvxusKviVnBB3LbKlo5W-18" value="TECH_OFFICER" style="whiteSpace=wrap;html=1;rounded=0;" vertex="1" parent="1">
          <mxGeometry x="700" y="1043.76" width="110" height="27.5" as="geometry" />
        </mxCell>
        <mxCell id="KvxusKviVnBB3LbKlo5W-19" style="edgeStyle=none;rounded=0;orthogonalLoop=1;jettySize=auto;html=1;entryX=0.5;entryY=1;entryDx=0;entryDy=0;elbow=vertical;endArrow=none;startFill=0;" edge="1" parent="1" source="KvxusKviVnBB3LbKlo5W-21" target="KvxusKviVnBB3LbKlo5W-48">
          <mxGeometry relative="1" as="geometry" />
        </mxCell>
        <mxCell id="KvxusKviVnBB3LbKlo5W-20" value="M" style="edgeLabel;html=1;align=center;verticalAlign=middle;resizable=0;points=[];" vertex="1" connectable="0" parent="KvxusKviVnBB3LbKlo5W-19">
          <mxGeometry x="-0.6753" relative="1" as="geometry">
            <mxPoint as="offset" />
          </mxGeometry>
        </mxCell>
        <mxCell id="KvxusKviVnBB3LbKlo5W-21" value="COURSE" style="rounded=0;whiteSpace=wrap;html=1;" vertex="1" parent="1">
          <mxGeometry x="189" y="1011.35" width="100" height="40" as="geometry" />
        </mxCell>
        <mxCell id="KvxusKviVnBB3LbKlo5W-22" style="edgeStyle=none;rounded=0;orthogonalLoop=1;jettySize=auto;html=1;endArrow=none;startFill=0;" edge="1" parent="1" source="KvxusKviVnBB3LbKlo5W-23" target="KvxusKviVnBB3LbKlo5W-21">
          <mxGeometry relative="1" as="geometry" />
        </mxCell>
        <mxCell id="KvxusKviVnBB3LbKlo5W-23" value="&lt;u&gt;C_code&lt;/u&gt;" style="ellipse;whiteSpace=wrap;html=1;align=center;" vertex="1" parent="1">
          <mxGeometry x="104" y="950" width="70" height="30" as="geometry" />
        </mxCell>
        <mxCell id="KvxusKviVnBB3LbKlo5W-24" style="edgeStyle=none;rounded=0;orthogonalLoop=1;jettySize=auto;html=1;entryX=0.143;entryY=0.999;entryDx=0;entryDy=0;endArrow=none;startFill=0;entryPerimeter=0;" edge="1" parent="1" source="KvxusKviVnBB3LbKlo5W-25" target="KvxusKviVnBB3LbKlo5W-21">
          <mxGeometry relative="1" as="geometry" />
        </mxCell>
        <mxCell id="KvxusKviVnBB3LbKlo5W-25" value="C_name" style="ellipse;whiteSpace=wrap;html=1;align=center;" vertex="1" parent="1">
          <mxGeometry x="117.5" y="1115.69" width="70" height="30" as="geometry" />
        </mxCell>
        <mxCell id="KvxusKviVnBB3LbKlo5W-26" style="edgeStyle=none;rounded=0;orthogonalLoop=1;jettySize=auto;html=1;entryX=0.75;entryY=1;entryDx=0;entryDy=0;endArrow=none;startFill=0;" edge="1" parent="1" source="KvxusKviVnBB3LbKlo5W-27" target="KvxusKviVnBB3LbKlo5W-21">
          <mxGeometry relative="1" as="geometry" />
        </mxCell>
        <mxCell id="KvxusKviVnBB3LbKlo5W-27" value="Credit" style="ellipse;whiteSpace=wrap;html=1;align=center;" vertex="1" parent="1">
          <mxGeometry x="240" y="1110.69" width="70" height="30" as="geometry" />
        </mxCell>
        <mxCell id="KvxusKviVnBB3LbKlo5W-28" value="MEDICAL" style="rounded=0;whiteSpace=wrap;html=1;" vertex="1" parent="1">
          <mxGeometry x="-1013.25" y="795.87" width="100" height="40" as="geometry" />
        </mxCell>
        <mxCell id="KvxusKviVnBB3LbKlo5W-29" style="edgeStyle=none;rounded=0;orthogonalLoop=1;jettySize=auto;html=1;endArrow=none;startFill=0;" edge="1" parent="1" source="KvxusKviVnBB3LbKlo5W-30" target="KvxusKviVnBB3LbKlo5W-28">
          <mxGeometry relative="1" as="geometry" />
        </mxCell>
        <mxCell id="KvxusKviVnBB3LbKlo5W-30" value="&lt;u&gt;Medical_id&lt;/u&gt;" style="ellipse;whiteSpace=wrap;html=1;align=center;" vertex="1" parent="1">
          <mxGeometry x="-1118.25" y="755.87" width="70" height="30" as="geometry" />
        </mxCell>
        <mxCell id="KvxusKviVnBB3LbKlo5W-31" style="edgeStyle=none;rounded=0;orthogonalLoop=1;jettySize=auto;html=1;entryX=0;entryY=0.5;entryDx=0;entryDy=0;endArrow=none;startFill=0;" edge="1" parent="1" source="KvxusKviVnBB3LbKlo5W-32" target="KvxusKviVnBB3LbKlo5W-28">
          <mxGeometry relative="1" as="geometry" />
        </mxCell>
        <mxCell id="KvxusKviVnBB3LbKlo5W-32" value="Date_submitted" style="ellipse;whiteSpace=wrap;html=1;align=center;" vertex="1" parent="1">
          <mxGeometry x="-1148.25" y="805.87" width="100" height="30" as="geometry" />
        </mxCell>
        <mxCell id="KvxusKviVnBB3LbKlo5W-33" style="edgeStyle=none;rounded=0;orthogonalLoop=1;jettySize=auto;html=1;entryX=0.853;entryY=1.013;entryDx=0;entryDy=0;entryPerimeter=0;endArrow=none;startFill=0;" edge="1" parent="1" source="KvxusKviVnBB3LbKlo5W-34" target="KvxusKviVnBB3LbKlo5W-28">
          <mxGeometry relative="1" as="geometry" />
        </mxCell>
        <mxCell id="KvxusKviVnBB3LbKlo5W-34" value="Status" style="ellipse;whiteSpace=wrap;html=1;align=center;" vertex="1" parent="1">
          <mxGeometry x="-966.25" y="875.87" width="66.25" height="34.13" as="geometry" />
        </mxCell>
        <mxCell id="KvxusKviVnBB3LbKlo5W-35" value="ATTENDANCE" style="shape=ext;margin=3;double=1;whiteSpace=wrap;html=1;align=center;" vertex="1" parent="1">
          <mxGeometry x="-824" y="1100.73" width="100" height="40" as="geometry" />
        </mxCell>
        <mxCell id="KvxusKviVnBB3LbKlo5W-36" value="MARK" style="shape=ext;margin=3;double=1;whiteSpace=wrap;html=1;align=center;" vertex="1" parent="1">
          <mxGeometry x="-290.5" y="707.5" width="129" height="40" as="geometry" />
        </mxCell>
        <mxCell id="KvxusKviVnBB3LbKlo5W-37" style="edgeStyle=none;rounded=0;orthogonalLoop=1;jettySize=auto;html=1;entryX=0;entryY=1;entryDx=0;entryDy=0;endArrow=none;startFill=0;" edge="1" parent="1" source="KvxusKviVnBB3LbKlo5W-38" target="KvxusKviVnBB3LbKlo5W-36">
          <mxGeometry relative="1" as="geometry">
            <mxPoint x="-374.5000000000002" y="748.94" as="targetPoint" />
          </mxGeometry>
        </mxCell>
        <mxCell id="KvxusKviVnBB3LbKlo5W-38" value="Marks" style="ellipse;whiteSpace=wrap;html=1;align=center;" vertex="1" parent="1">
          <mxGeometry x="-408.5" y="772.5" width="70" height="35" as="geometry" />
        </mxCell>
        <mxCell id="KvxusKviVnBB3LbKlo5W-39" style="edgeStyle=none;rounded=0;orthogonalLoop=1;jettySize=auto;html=1;entryX=0.5;entryY=0;entryDx=0;entryDy=0;endArrow=none;startFill=0;" edge="1" parent="1" source="KvxusKviVnBB3LbKlo5W-41" target="KvxusKviVnBB3LbKlo5W-21">
          <mxGeometry relative="1" as="geometry" />
        </mxCell>
        <mxCell id="KvxusKviVnBB3LbKlo5W-40" value="M" style="edgeLabel;html=1;align=center;verticalAlign=middle;resizable=0;points=[];" vertex="1" connectable="0" parent="KvxusKviVnBB3LbKlo5W-39">
          <mxGeometry x="0.4484" y="-1" relative="1" as="geometry">
            <mxPoint x="19" y="26" as="offset" />
          </mxGeometry>
        </mxCell>
        <mxCell id="KvxusKviVnBB3LbKlo5W-41" value="ENROLLS_IN" style="rhombus;whiteSpace=wrap;html=1;" vertex="1" parent="1">
          <mxGeometry x="-18.75" y="695" width="132.5" height="60" as="geometry" />
        </mxCell>
        <mxCell id="KvxusKviVnBB3LbKlo5W-42" style="edgeStyle=none;rounded=0;orthogonalLoop=1;jettySize=auto;html=1;endArrow=none;startFill=0;" edge="1" parent="1" source="KvxusKviVnBB3LbKlo5W-43" target="KvxusKviVnBB3LbKlo5W-41">
          <mxGeometry relative="1" as="geometry" />
        </mxCell>
        <mxCell id="KvxusKviVnBB3LbKlo5W-43" value="Academic_yr" style="ellipse;whiteSpace=wrap;html=1;align=center;" vertex="1" parent="1">
          <mxGeometry x="100" y="765" width="90" height="35" as="geometry" />
        </mxCell>
        <mxCell id="KvxusKviVnBB3LbKlo5W-44" value="Sem" style="ellipse;whiteSpace=wrap;html=1;align=center;" vertex="1" parent="1">
          <mxGeometry x="150" y="682.5" width="40" height="20" as="geometry" />
        </mxCell>
        <mxCell id="KvxusKviVnBB3LbKlo5W-45" style="edgeStyle=none;rounded=0;orthogonalLoop=1;jettySize=auto;html=1;endArrow=none;startFill=0;" edge="1" parent="1" source="KvxusKviVnBB3LbKlo5W-44">
          <mxGeometry relative="1" as="geometry">
            <mxPoint x="80" y="710" as="targetPoint" />
          </mxGeometry>
        </mxCell>
        <mxCell id="KvxusKviVnBB3LbKlo5W-46" value="Status" style="ellipse;whiteSpace=wrap;html=1;align=center;" vertex="1" parent="1">
          <mxGeometry x="-114.5" y="650" width="70" height="32.5" as="geometry" />
        </mxCell>
        <mxCell id="KvxusKviVnBB3LbKlo5W-47" style="edgeStyle=none;rounded=0;orthogonalLoop=1;jettySize=auto;html=1;entryX=0.325;entryY=0.171;entryDx=0;entryDy=0;entryPerimeter=0;endArrow=none;startFill=0;" edge="1" parent="1" source="KvxusKviVnBB3LbKlo5W-46" target="KvxusKviVnBB3LbKlo5W-41">
          <mxGeometry relative="1" as="geometry" />
        </mxCell>
        <mxCell id="KvxusKviVnBB3LbKlo5W-48" value="TEACHES" style="rhombus;whiteSpace=wrap;html=1;" vertex="1" parent="1">
          <mxGeometry x="249.84" y="765" width="112.5" height="50" as="geometry" />
        </mxCell>
        <mxCell id="KvxusKviVnBB3LbKlo5W-49" style="edgeStyle=none;rounded=0;orthogonalLoop=1;jettySize=auto;html=1;entryX=0.25;entryY=0;entryDx=0;entryDy=0;elbow=vertical;endArrow=none;startFill=0;exitX=0;exitY=0.5;exitDx=0;exitDy=0;" edge="1" parent="1" source="KvxusKviVnBB3LbKlo5W-51" target="KvxusKviVnBB3LbKlo5W-28">
          <mxGeometry relative="1" as="geometry" />
        </mxCell>
        <mxCell id="KvxusKviVnBB3LbKlo5W-50" value="M" style="edgeLabel;html=1;align=center;verticalAlign=middle;resizable=0;points=[];" vertex="1" connectable="0" parent="KvxusKviVnBB3LbKlo5W-49">
          <mxGeometry x="0.5698" y="-3" relative="1" as="geometry">
            <mxPoint x="-2" y="7" as="offset" />
          </mxGeometry>
        </mxCell>
        <mxCell id="KvxusKviVnBB3LbKlo5W-51" value="SUBMITS" style="rhombus;whiteSpace=wrap;html=1;rounded=0;" vertex="1" parent="1">
          <mxGeometry x="-942.75" y="634.13" width="121" height="55" as="geometry" />
        </mxCell>
        <mxCell id="KvxusKviVnBB3LbKlo5W-52" style="edgeStyle=none;rounded=0;orthogonalLoop=1;jettySize=auto;html=1;entryX=0.5;entryY=0;entryDx=0;entryDy=0;elbow=vertical;endArrow=none;startFill=0;exitX=0.5;exitY=1;exitDx=0;exitDy=0;" edge="1" parent="1" source="KvxusKviVnBB3LbKlo5W-55" target="KvxusKviVnBB3LbKlo5W-35">
          <mxGeometry relative="1" as="geometry">
            <mxPoint x="-778" y="1322.68" as="targetPoint" />
          </mxGeometry>
        </mxCell>
        <mxCell id="KvxusKviVnBB3LbKlo5W-54" value="M" style="edgeLabel;html=1;align=center;verticalAlign=middle;resizable=0;points=[];" vertex="1" connectable="0" parent="KvxusKviVnBB3LbKlo5W-52">
          <mxGeometry x="0.7961" y="-3" relative="1" as="geometry">
            <mxPoint x="2" as="offset" />
          </mxGeometry>
        </mxCell>
        <mxCell id="KvxusKviVnBB3LbKlo5W-55" value="HAS" style="shape=rhombus;double=1;perimeter=rhombusPerimeter;whiteSpace=wrap;html=1;align=center;" vertex="1" parent="1">
          <mxGeometry x="-821.75" y="805.87" width="100" height="45" as="geometry" />
        </mxCell>
        <mxCell id="KvxusKviVnBB3LbKlo5W-56" style="rounded=0;orthogonalLoop=1;jettySize=auto;html=1;entryX=0;entryY=1;entryDx=0;entryDy=0;endArrow=none;endFill=0;" edge="1" parent="1" source="KvxusKviVnBB3LbKlo5W-57" target="KvxusKviVnBB3LbKlo5W-28">
          <mxGeometry relative="1" as="geometry" />
        </mxCell>
        <mxCell id="KvxusKviVnBB3LbKlo5W-57" value="&lt;span style=&quot;color: rgb(255, 255, 255); text-decoration-line: underline;&quot;&gt;St_id&lt;/span&gt;" style="ellipse;whiteSpace=wrap;html=1;align=center;fillColor=#008a00;fontColor=#ffffff;strokeColor=#005700;" vertex="1" parent="1">
          <mxGeometry x="-1062.75" y="868.37" width="49.5" height="30" as="geometry" />
        </mxCell>
        <mxCell id="KvxusKviVnBB3LbKlo5W-58" value="Dpt name" style="ellipse;whiteSpace=wrap;html=1;align=center;" vertex="1" parent="1">
          <mxGeometry x="149.99999999999997" y="516.9799999999999" width="63.5" height="30" as="geometry" />
        </mxCell>
        <mxCell id="KvxusKviVnBB3LbKlo5W-59" style="rounded=0;orthogonalLoop=1;jettySize=auto;html=1;entryX=0.147;entryY=1.048;entryDx=0;entryDy=0;entryPerimeter=0;endArrow=none;endFill=0;" edge="1" parent="1" source="KvxusKviVnBB3LbKlo5W-58" target="KvxusKviVnBB3LbKlo5W-17">
          <mxGeometry relative="1" as="geometry" />
        </mxCell>
        <mxCell id="KvxusKviVnBB3LbKlo5W-60" style="edgeStyle=none;rounded=0;orthogonalLoop=1;jettySize=auto;html=1;entryX=0;entryY=0;entryDx=0;entryDy=0;endArrow=none;endFill=0;" edge="1" parent="1" source="KvxusKviVnBB3LbKlo5W-61" target="KvxusKviVnBB3LbKlo5W-11">
          <mxGeometry relative="1" as="geometry" />
        </mxCell>
        <mxCell id="KvxusKviVnBB3LbKlo5W-61" value="Admin_id" style="ellipse;whiteSpace=wrap;html=1;align=center;fontStyle=4" vertex="1" parent="1">
          <mxGeometry x="426.25" y="1220" width="65" height="30" as="geometry" />
        </mxCell>
        <mxCell id="KvxusKviVnBB3LbKlo5W-62" style="edgeStyle=none;rounded=0;orthogonalLoop=1;jettySize=auto;html=1;entryX=0.25;entryY=1;entryDx=0;entryDy=0;endArrow=none;endFill=0;" edge="1" parent="1" source="KvxusKviVnBB3LbKlo5W-63" target="KvxusKviVnBB3LbKlo5W-14">
          <mxGeometry relative="1" as="geometry" />
        </mxCell>
        <mxCell id="KvxusKviVnBB3LbKlo5W-63" value="Dean_id" style="ellipse;whiteSpace=wrap;html=1;align=center;fontStyle=4" vertex="1" parent="1">
          <mxGeometry x="506" y="805" width="65" height="30" as="geometry" />
        </mxCell>
        <mxCell id="KvxusKviVnBB3LbKlo5W-64" style="edgeStyle=none;rounded=0;orthogonalLoop=1;jettySize=auto;html=1;endArrow=none;endFill=0;" edge="1" parent="1" source="KvxusKviVnBB3LbKlo5W-65">
          <mxGeometry relative="1" as="geometry">
            <mxPoint x="741" y="1072.5300000000002" as="targetPoint" />
          </mxGeometry>
        </mxCell>
        <mxCell id="KvxusKviVnBB3LbKlo5W-65" value="Techoff_id" style="ellipse;whiteSpace=wrap;html=1;align=center;fontStyle=4" vertex="1" parent="1">
          <mxGeometry x="690" y="1139.95" width="65" height="30" as="geometry" />
        </mxCell>
        <mxCell id="KvxusKviVnBB3LbKlo5W-66" style="edgeStyle=none;rounded=0;orthogonalLoop=1;jettySize=auto;html=1;entryX=0;entryY=0.5;entryDx=0;entryDy=0;endArrow=none;endFill=0;" edge="1" parent="1" source="KvxusKviVnBB3LbKlo5W-67" target="KvxusKviVnBB3LbKlo5W-17">
          <mxGeometry relative="1" as="geometry" />
        </mxCell>
        <mxCell id="KvxusKviVnBB3LbKlo5W-67" value="Lec_id" style="ellipse;whiteSpace=wrap;html=1;align=center;fontStyle=4" vertex="1" parent="1">
          <mxGeometry x="88.5" y="445.9" width="65" height="30" as="geometry" />
        </mxCell>
        <mxCell id="KvxusKviVnBB3LbKlo5W-68" style="edgeStyle=none;rounded=0;orthogonalLoop=1;jettySize=auto;html=1;entryX=0.22;entryY=0.69;entryDx=0;entryDy=0;entryPerimeter=0;" edge="1" parent="1" source="KvxusKviVnBB3LbKlo5W-69" target="KvxusKviVnBB3LbKlo5W-41">
          <mxGeometry relative="1" as="geometry">
            <mxPoint x="-20" y="730" as="targetPoint" />
          </mxGeometry>
        </mxCell>
        <mxCell id="KvxusKviVnBB3LbKlo5W-69" value="&lt;span style=&quot;color: rgb(255, 255, 255); text-decoration-line: underline;&quot;&gt;St_id&lt;/span&gt;" style="ellipse;whiteSpace=wrap;html=1;align=center;fillColor=light-dark(#008a00, #43ba43);fontColor=#ffffff;strokeColor=#005700;" vertex="1" parent="1">
          <mxGeometry x="-88.75" y="805.87" width="70" height="30" as="geometry" />
        </mxCell>
        <mxCell id="KvxusKviVnBB3LbKlo5W-70" style="edgeStyle=none;rounded=0;orthogonalLoop=1;jettySize=auto;html=1;entryX=0.284;entryY=0.769;entryDx=0;entryDy=0;entryPerimeter=0;" edge="1" parent="1" source="KvxusKviVnBB3LbKlo5W-71" target="KvxusKviVnBB3LbKlo5W-41">
          <mxGeometry relative="1" as="geometry">
            <mxPoint x="-9.999999999999773" y="730" as="targetPoint" />
          </mxGeometry>
        </mxCell>
        <mxCell id="KvxusKviVnBB3LbKlo5W-71" value="&lt;u&gt;C_code&lt;/u&gt;" style="ellipse;whiteSpace=wrap;html=1;align=center;fillColor=light-dark(#008a00, #43ba43);fontColor=#ffffff;strokeColor=#005700;" vertex="1" parent="1">
          <mxGeometry x="-41.5" y="838.37" width="70" height="30" as="geometry" />
        </mxCell>
        <mxCell id="KvxusKviVnBB3LbKlo5W-72" value="Dpt_name" style="ellipse;whiteSpace=wrap;html=1;align=center;fontStyle=0" vertex="1" parent="1">
          <mxGeometry x="-132.5" y="355" width="75" height="30" as="geometry" />
        </mxCell>
        <mxCell id="KvxusKviVnBB3LbKlo5W-73" style="edgeStyle=none;rounded=0;orthogonalLoop=1;jettySize=auto;html=1;entryX=1;entryY=0;entryDx=0;entryDy=0;endArrow=none;endFill=0;" edge="1" parent="1" source="KvxusKviVnBB3LbKlo5W-72" target="KvxusKviVnBB3LbKlo5W-10">
          <mxGeometry relative="1" as="geometry" />
        </mxCell>
        <mxCell id="KvxusKviVnBB3LbKlo5W-74" value="&lt;u&gt;St_id&lt;/u&gt;" style="ellipse;whiteSpace=wrap;html=1;align=center;" vertex="1" parent="1">
          <mxGeometry x="-414" y="370" width="70" height="30" as="geometry" />
        </mxCell>
        <mxCell id="KvxusKviVnBB3LbKlo5W-75" value="Name" style="ellipse;whiteSpace=wrap;html=1;align=center;" vertex="1" parent="1">
          <mxGeometry x="-370" y="325" width="70" height="30" as="geometry" />
        </mxCell>
        <mxCell id="KvxusKviVnBB3LbKlo5W-76" value="Nic" style="ellipse;whiteSpace=wrap;html=1;align=center;" vertex="1" parent="1">
          <mxGeometry x="-192" y="310" width="70" height="30" as="geometry" />
        </mxCell>
        <mxCell id="KvxusKviVnBB3LbKlo5W-77" value="Email" style="ellipse;whiteSpace=wrap;html=1;align=center;" vertex="1" parent="1">
          <mxGeometry x="-282" y="300" width="70" height="30" as="geometry" />
        </mxCell>
        <mxCell id="KvxusKviVnBB3LbKlo5W-78" value="Phone" style="ellipse;shape=doubleEllipse;margin=3;whiteSpace=wrap;html=1;align=center;" vertex="1" parent="1">
          <mxGeometry x="-102" y="410" width="60" height="30" as="geometry" />
        </mxCell>
        <mxCell id="KvxusKviVnBB3LbKlo5W-79" style="rounded=0;orthogonalLoop=1;jettySize=auto;html=1;entryX=1;entryY=0.5;entryDx=0;entryDy=0;endArrow=none;startFill=0;" edge="1" parent="1" source="KvxusKviVnBB3LbKlo5W-80" target="KvxusKviVnBB3LbKlo5W-81">
          <mxGeometry relative="1" as="geometry" />
        </mxCell>
        <mxCell id="KvxusKviVnBB3LbKlo5W-80" value="Address" style="ellipse;whiteSpace=wrap;html=1;align=center;" vertex="1" parent="1">
          <mxGeometry x="-431" y="435" width="70" height="30" as="geometry" />
        </mxCell>
        <mxCell id="KvxusKviVnBB3LbKlo5W-81" value="No" style="ellipse;whiteSpace=wrap;html=1;align=center;" vertex="1" parent="1">
          <mxGeometry x="-491" y="410" width="40" height="20" as="geometry" />
        </mxCell>
        <mxCell id="KvxusKviVnBB3LbKlo5W-82" value="City" style="ellipse;whiteSpace=wrap;html=1;align=center;" vertex="1" parent="1">
          <mxGeometry x="-501" y="450" width="40" height="20" as="geometry" />
        </mxCell>
        <mxCell id="KvxusKviVnBB3LbKlo5W-83" value="Street" style="ellipse;whiteSpace=wrap;html=1;align=center;" vertex="1" parent="1">
          <mxGeometry x="-481" y="485" width="50" height="20" as="geometry" />
        </mxCell>
        <mxCell id="KvxusKviVnBB3LbKlo5W-84" style="rounded=0;orthogonalLoop=1;jettySize=auto;html=1;entryX=0.931;entryY=0.245;entryDx=0;entryDy=0;entryPerimeter=0;endArrow=none;startFill=0;" edge="1" parent="1" source="KvxusKviVnBB3LbKlo5W-80" target="KvxusKviVnBB3LbKlo5W-82">
          <mxGeometry relative="1" as="geometry" />
        </mxCell>
        <mxCell id="KvxusKviVnBB3LbKlo5W-85" style="rounded=0;orthogonalLoop=1;jettySize=auto;html=1;entryX=0.947;entryY=0.33;entryDx=0;entryDy=0;entryPerimeter=0;endArrow=none;startFill=0;" edge="1" parent="1" source="KvxusKviVnBB3LbKlo5W-80" target="KvxusKviVnBB3LbKlo5W-83">
          <mxGeometry relative="1" as="geometry" />
        </mxCell>
        <mxCell id="KvxusKviVnBB3LbKlo5W-86" style="edgeStyle=none;rounded=0;orthogonalLoop=1;jettySize=auto;html=1;entryX=0.949;entryY=0.747;entryDx=0;entryDy=0;entryPerimeter=0;endArrow=none;endFill=0;" edge="1" parent="1" source="KvxusKviVnBB3LbKlo5W-10" target="KvxusKviVnBB3LbKlo5W-74">
          <mxGeometry relative="1" as="geometry" />
        </mxCell>
        <mxCell id="KvxusKviVnBB3LbKlo5W-87" style="edgeStyle=none;rounded=0;orthogonalLoop=1;jettySize=auto;html=1;entryX=0.232;entryY=0.902;entryDx=0;entryDy=0;entryPerimeter=0;endArrow=none;endFill=0;" edge="1" parent="1" source="KvxusKviVnBB3LbKlo5W-10" target="KvxusKviVnBB3LbKlo5W-76">
          <mxGeometry relative="1" as="geometry" />
        </mxCell>
        <mxCell id="KvxusKviVnBB3LbKlo5W-88" style="edgeStyle=none;rounded=0;orthogonalLoop=1;jettySize=auto;html=1;entryX=0.038;entryY=0.587;entryDx=0;entryDy=0;entryPerimeter=0;endArrow=none;endFill=0;" edge="1" parent="1" source="KvxusKviVnBB3LbKlo5W-10" target="KvxusKviVnBB3LbKlo5W-78">
          <mxGeometry relative="1" as="geometry" />
        </mxCell>
        <mxCell id="KvxusKviVnBB3LbKlo5W-89" value="Name" style="ellipse;whiteSpace=wrap;html=1;align=center;" vertex="1" parent="1">
          <mxGeometry x="455.25" y="1369.98" width="70" height="30" as="geometry" />
        </mxCell>
        <mxCell id="KvxusKviVnBB3LbKlo5W-90" style="edgeStyle=none;rounded=0;orthogonalLoop=1;jettySize=auto;html=1;entryX=1;entryY=1;entryDx=0;entryDy=0;endArrow=none;endFill=0;" edge="1" parent="1" source="KvxusKviVnBB3LbKlo5W-91" target="KvxusKviVnBB3LbKlo5W-11">
          <mxGeometry relative="1" as="geometry">
            <mxPoint x="636.25" y="1310.0000000000002" as="targetPoint" />
          </mxGeometry>
        </mxCell>
        <mxCell id="KvxusKviVnBB3LbKlo5W-91" value="Nic" style="ellipse;whiteSpace=wrap;html=1;align=center;" vertex="1" parent="1">
          <mxGeometry x="725.25" y="1332.5" width="70" height="30" as="geometry" />
        </mxCell>
        <mxCell id="KvxusKviVnBB3LbKlo5W-92" value="Email" style="ellipse;whiteSpace=wrap;html=1;align=center;" vertex="1" parent="1">
          <mxGeometry x="532.5" y="1395" width="70" height="30" as="geometry" />
        </mxCell>
        <mxCell id="KvxusKviVnBB3LbKlo5W-93" style="edgeStyle=none;rounded=0;orthogonalLoop=1;jettySize=auto;html=1;entryX=1;entryY=0.75;entryDx=0;entryDy=0;endArrow=none;endFill=0;" edge="1" parent="1" source="KvxusKviVnBB3LbKlo5W-94" target="KvxusKviVnBB3LbKlo5W-11">
          <mxGeometry relative="1" as="geometry" />
        </mxCell>
        <mxCell id="KvxusKviVnBB3LbKlo5W-94" value="Phone" style="ellipse;whiteSpace=wrap;html=1;align=center;" vertex="1" parent="1">
          <mxGeometry x="754.75" y="1270" width="60" height="30" as="geometry" />
        </mxCell>
        <mxCell id="KvxusKviVnBB3LbKlo5W-95" style="rounded=0;orthogonalLoop=1;jettySize=auto;html=1;entryX=1;entryY=0.5;entryDx=0;entryDy=0;endArrow=none;startFill=0;" edge="1" parent="1" source="KvxusKviVnBB3LbKlo5W-96" target="KvxusKviVnBB3LbKlo5W-97">
          <mxGeometry relative="1" as="geometry" />
        </mxCell>
        <mxCell id="KvxusKviVnBB3LbKlo5W-96" value="Address" style="ellipse;whiteSpace=wrap;html=1;align=center;" vertex="1" parent="1">
          <mxGeometry x="440.25" y="1292.5" width="70" height="30" as="geometry" />
        </mxCell>
        <mxCell id="KvxusKviVnBB3LbKlo5W-97" value="No" style="ellipse;whiteSpace=wrap;html=1;align=center;" vertex="1" parent="1">
          <mxGeometry x="380.25" y="1267.5" width="40" height="20" as="geometry" />
        </mxCell>
        <mxCell id="KvxusKviVnBB3LbKlo5W-98" value="City" style="ellipse;whiteSpace=wrap;html=1;align=center;" vertex="1" parent="1">
          <mxGeometry x="370.25" y="1307.5" width="40" height="20" as="geometry" />
        </mxCell>
        <mxCell id="KvxusKviVnBB3LbKlo5W-99" value="Street" style="ellipse;whiteSpace=wrap;html=1;align=center;" vertex="1" parent="1">
          <mxGeometry x="390.25" y="1342.5" width="50" height="20" as="geometry" />
        </mxCell>
        <mxCell id="KvxusKviVnBB3LbKlo5W-100" style="rounded=0;orthogonalLoop=1;jettySize=auto;html=1;entryX=0.931;entryY=0.245;entryDx=0;entryDy=0;entryPerimeter=0;endArrow=none;startFill=0;" edge="1" parent="1" source="KvxusKviVnBB3LbKlo5W-96" target="KvxusKviVnBB3LbKlo5W-98">
          <mxGeometry relative="1" as="geometry" />
        </mxCell>
        <mxCell id="KvxusKviVnBB3LbKlo5W-101" style="rounded=0;orthogonalLoop=1;jettySize=auto;html=1;entryX=0.947;entryY=0.33;entryDx=0;entryDy=0;entryPerimeter=0;endArrow=none;startFill=0;" edge="1" parent="1" source="KvxusKviVnBB3LbKlo5W-96" target="KvxusKviVnBB3LbKlo5W-99">
          <mxGeometry relative="1" as="geometry" />
        </mxCell>
        <mxCell id="KvxusKviVnBB3LbKlo5W-102" style="edgeStyle=none;rounded=0;orthogonalLoop=1;jettySize=auto;html=1;entryX=0.689;entryY=0.995;entryDx=0;entryDy=0;entryPerimeter=0;endArrow=none;endFill=0;" edge="1" parent="1" source="KvxusKviVnBB3LbKlo5W-92" target="KvxusKviVnBB3LbKlo5W-11">
          <mxGeometry relative="1" as="geometry" />
        </mxCell>
        <mxCell id="KvxusKviVnBB3LbKlo5W-103" style="edgeStyle=none;rounded=0;orthogonalLoop=1;jettySize=auto;html=1;entryX=0.351;entryY=0.974;entryDx=0;entryDy=0;entryPerimeter=0;endArrow=none;endFill=0;" edge="1" parent="1" source="KvxusKviVnBB3LbKlo5W-89" target="KvxusKviVnBB3LbKlo5W-11">
          <mxGeometry relative="1" as="geometry" />
        </mxCell>
        <mxCell id="KvxusKviVnBB3LbKlo5W-104" style="edgeStyle=none;rounded=0;orthogonalLoop=1;jettySize=auto;html=1;entryX=-0.001;entryY=0.91;entryDx=0;entryDy=0;entryPerimeter=0;endArrow=none;endFill=0;" edge="1" parent="1" source="KvxusKviVnBB3LbKlo5W-96" target="KvxusKviVnBB3LbKlo5W-11">
          <mxGeometry relative="1" as="geometry" />
        </mxCell>
        <mxCell id="KvxusKviVnBB3LbKlo5W-105" style="edgeStyle=none;rounded=0;orthogonalLoop=1;jettySize=auto;html=1;entryX=1;entryY=0;entryDx=0;entryDy=0;endArrow=none;endFill=0;" edge="1" parent="1" source="KvxusKviVnBB3LbKlo5W-106" target="KvxusKviVnBB3LbKlo5W-11">
          <mxGeometry relative="1" as="geometry" />
        </mxCell>
        <mxCell id="KvxusKviVnBB3LbKlo5W-106" value="Dpt_name" style="ellipse;whiteSpace=wrap;html=1;align=center;fontStyle=0" vertex="1" parent="1">
          <mxGeometry x="711.25" y="1220" width="75" height="30" as="geometry" />
        </mxCell>
        <mxCell id="KvxusKviVnBB3LbKlo5W-107" value="Name" style="ellipse;whiteSpace=wrap;html=1;align=center;" vertex="1" parent="1">
          <mxGeometry x="638.5" y="660" width="70" height="30" as="geometry" />
        </mxCell>
        <mxCell id="KvxusKviVnBB3LbKlo5W-108" value="Nic" style="ellipse;whiteSpace=wrap;html=1;align=center;" vertex="1" parent="1">
          <mxGeometry x="746" y="741.3800000000001" width="70" height="30" as="geometry" />
        </mxCell>
        <mxCell id="KvxusKviVnBB3LbKlo5W-109" value="Email" style="ellipse;whiteSpace=wrap;html=1;align=center;" vertex="1" parent="1">
          <mxGeometry x="723" y="690" width="70" height="30" as="geometry" />
        </mxCell>
        <mxCell id="KvxusKviVnBB3LbKlo5W-110" style="rounded=0;orthogonalLoop=1;jettySize=auto;html=1;entryX=0.546;entryY=0.005;entryDx=0;entryDy=0;endArrow=none;startFill=0;entryPerimeter=0;" edge="1" parent="1" source="KvxusKviVnBB3LbKlo5W-111" target="KvxusKviVnBB3LbKlo5W-112">
          <mxGeometry relative="1" as="geometry" />
        </mxCell>
        <mxCell id="KvxusKviVnBB3LbKlo5W-111" value="Address" style="ellipse;whiteSpace=wrap;html=1;align=center;" vertex="1" parent="1">
          <mxGeometry x="603.5" y="810.0699999999999" width="70" height="30" as="geometry" />
        </mxCell>
        <mxCell id="KvxusKviVnBB3LbKlo5W-112" value="No" style="ellipse;whiteSpace=wrap;html=1;align=center;" vertex="1" parent="1">
          <mxGeometry x="573.5" y="863.45" width="40" height="20" as="geometry" />
        </mxCell>
        <mxCell id="KvxusKviVnBB3LbKlo5W-113" value="City" style="ellipse;whiteSpace=wrap;html=1;align=center;" vertex="1" parent="1">
          <mxGeometry x="626" y="866.69" width="40" height="20" as="geometry" />
        </mxCell>
        <mxCell id="KvxusKviVnBB3LbKlo5W-114" value="Street" style="ellipse;whiteSpace=wrap;html=1;align=center;" vertex="1" parent="1">
          <mxGeometry x="666" y="855.0699999999999" width="50" height="20" as="geometry" />
        </mxCell>
        <mxCell id="KvxusKviVnBB3LbKlo5W-115" style="rounded=0;orthogonalLoop=1;jettySize=auto;html=1;entryX=0.531;entryY=-0.007;entryDx=0;entryDy=0;entryPerimeter=0;endArrow=none;startFill=0;" edge="1" parent="1" source="KvxusKviVnBB3LbKlo5W-111" target="KvxusKviVnBB3LbKlo5W-113">
          <mxGeometry relative="1" as="geometry" />
        </mxCell>
        <mxCell id="KvxusKviVnBB3LbKlo5W-116" style="rounded=0;orthogonalLoop=1;jettySize=auto;html=1;entryX=0.5;entryY=0;entryDx=0;entryDy=0;endArrow=none;startFill=0;" edge="1" parent="1" source="KvxusKviVnBB3LbKlo5W-111" target="KvxusKviVnBB3LbKlo5W-114">
          <mxGeometry relative="1" as="geometry" />
        </mxCell>
        <mxCell id="KvxusKviVnBB3LbKlo5W-117" value="Phone" style="ellipse;whiteSpace=wrap;html=1;align=center;" vertex="1" parent="1">
          <mxGeometry x="706" y="795" width="70" height="30" as="geometry" />
        </mxCell>
        <mxCell id="KvxusKviVnBB3LbKlo5W-118" style="edgeStyle=orthogonalEdgeStyle;rounded=0;orthogonalLoop=1;jettySize=auto;html=1;exitX=0.5;exitY=1;exitDx=0;exitDy=0;" edge="1" parent="1" source="KvxusKviVnBB3LbKlo5W-108" target="KvxusKviVnBB3LbKlo5W-108">
          <mxGeometry relative="1" as="geometry" />
        </mxCell>
        <mxCell id="KvxusKviVnBB3LbKlo5W-119" style="edgeStyle=none;rounded=0;orthogonalLoop=1;jettySize=auto;html=1;entryX=0;entryY=0;entryDx=0;entryDy=0;endArrow=none;endFill=0;" edge="1" parent="1" source="KvxusKviVnBB3LbKlo5W-14" target="KvxusKviVnBB3LbKlo5W-117">
          <mxGeometry relative="1" as="geometry" />
        </mxCell>
        <mxCell id="KvxusKviVnBB3LbKlo5W-120" style="edgeStyle=none;rounded=0;orthogonalLoop=1;jettySize=auto;html=1;entryX=0.363;entryY=1.016;entryDx=0;entryDy=0;entryPerimeter=0;endArrow=none;endFill=0;" edge="1" parent="1" source="KvxusKviVnBB3LbKlo5W-14" target="KvxusKviVnBB3LbKlo5W-107">
          <mxGeometry relative="1" as="geometry" />
        </mxCell>
        <mxCell id="KvxusKviVnBB3LbKlo5W-121" style="edgeStyle=none;rounded=0;orthogonalLoop=1;jettySize=auto;html=1;entryX=0.021;entryY=0.62;entryDx=0;entryDy=0;entryPerimeter=0;endArrow=none;endFill=0;" edge="1" parent="1" source="KvxusKviVnBB3LbKlo5W-14" target="KvxusKviVnBB3LbKlo5W-109">
          <mxGeometry relative="1" as="geometry" />
        </mxCell>
        <mxCell id="KvxusKviVnBB3LbKlo5W-122" style="edgeStyle=none;rounded=0;orthogonalLoop=1;jettySize=auto;html=1;entryX=0.996;entryY=0.066;entryDx=0;entryDy=0;endArrow=none;endFill=0;entryPerimeter=0;" edge="1" parent="1" source="KvxusKviVnBB3LbKlo5W-123" target="KvxusKviVnBB3LbKlo5W-17">
          <mxGeometry relative="1" as="geometry" />
        </mxCell>
        <mxCell id="KvxusKviVnBB3LbKlo5W-123" value="Name" style="ellipse;whiteSpace=wrap;html=1;align=center;" vertex="1" parent="1">
          <mxGeometry x="363.5" y="352.92" width="70" height="30" as="geometry" />
        </mxCell>
        <mxCell id="KvxusKviVnBB3LbKlo5W-124" value="Nic" style="ellipse;whiteSpace=wrap;html=1;align=center;" vertex="1" parent="1">
          <mxGeometry x="343.5" y="516.9799999999999" width="40" height="22.02" as="geometry" />
        </mxCell>
        <mxCell id="KvxusKviVnBB3LbKlo5W-125" style="edgeStyle=none;rounded=0;orthogonalLoop=1;jettySize=auto;html=1;entryX=0.999;entryY=0.322;entryDx=0;entryDy=0;endArrow=none;endFill=0;entryPerimeter=0;" edge="1" parent="1" source="KvxusKviVnBB3LbKlo5W-126" target="KvxusKviVnBB3LbKlo5W-17">
          <mxGeometry relative="1" as="geometry" />
        </mxCell>
        <mxCell id="KvxusKviVnBB3LbKlo5W-126" value="Email" style="ellipse;whiteSpace=wrap;html=1;align=center;" vertex="1" parent="1">
          <mxGeometry x="443.5" y="392.92" width="70" height="30" as="geometry" />
        </mxCell>
        <mxCell id="KvxusKviVnBB3LbKlo5W-127" value="Phone" style="ellipse;shape=doubleEllipse;margin=3;whiteSpace=wrap;html=1;align=center;" vertex="1" parent="1">
          <mxGeometry x="453.5" y="445.90000000000003" width="60" height="30" as="geometry" />
        </mxCell>
        <mxCell id="KvxusKviVnBB3LbKlo5W-128" style="rounded=0;orthogonalLoop=1;jettySize=auto;html=1;entryX=0.429;entryY=0.986;entryDx=0;entryDy=0;endArrow=none;startFill=0;entryPerimeter=0;" edge="1" parent="1" source="KvxusKviVnBB3LbKlo5W-129" target="KvxusKviVnBB3LbKlo5W-130">
          <mxGeometry relative="1" as="geometry">
            <mxPoint x="333.4999999999998" y="287.76000000000016" as="targetPoint" />
          </mxGeometry>
        </mxCell>
        <mxCell id="KvxusKviVnBB3LbKlo5W-129" value="Address" style="ellipse;whiteSpace=wrap;html=1;align=center;" vertex="1" parent="1">
          <mxGeometry x="261.84000000000003" y="342.92" width="70" height="30" as="geometry" />
        </mxCell>
        <mxCell id="KvxusKviVnBB3LbKlo5W-130" value="No" style="ellipse;whiteSpace=wrap;html=1;align=center;" vertex="1" parent="1">
          <mxGeometry x="313.5" y="272.92" width="40" height="20" as="geometry" />
        </mxCell>
        <mxCell id="KvxusKviVnBB3LbKlo5W-131" value="City" style="ellipse;whiteSpace=wrap;html=1;align=center;" vertex="1" parent="1">
          <mxGeometry x="253.34000000000003" y="267.92" width="40" height="20" as="geometry" />
        </mxCell>
        <mxCell id="KvxusKviVnBB3LbKlo5W-132" value="Street" style="ellipse;whiteSpace=wrap;html=1;align=center;" vertex="1" parent="1">
          <mxGeometry x="203.34000000000003" y="302.92" width="50" height="20" as="geometry" />
        </mxCell>
        <mxCell id="KvxusKviVnBB3LbKlo5W-133" style="rounded=0;orthogonalLoop=1;jettySize=auto;html=1;entryX=0.545;entryY=1.001;entryDx=0;entryDy=0;entryPerimeter=0;endArrow=none;startFill=0;" edge="1" parent="1" source="KvxusKviVnBB3LbKlo5W-129" target="KvxusKviVnBB3LbKlo5W-131">
          <mxGeometry relative="1" as="geometry" />
        </mxCell>
        <mxCell id="KvxusKviVnBB3LbKlo5W-134" style="rounded=0;orthogonalLoop=1;jettySize=auto;html=1;entryX=0.807;entryY=0.909;entryDx=0;entryDy=0;entryPerimeter=0;endArrow=none;startFill=0;" edge="1" parent="1" source="KvxusKviVnBB3LbKlo5W-129" target="KvxusKviVnBB3LbKlo5W-132">
          <mxGeometry relative="1" as="geometry" />
        </mxCell>
        <mxCell id="KvxusKviVnBB3LbKlo5W-135" style="edgeStyle=none;rounded=0;orthogonalLoop=1;jettySize=auto;html=1;entryX=0.899;entryY=0.008;entryDx=0;entryDy=0;entryPerimeter=0;endArrow=none;endFill=0;" edge="1" parent="1" source="KvxusKviVnBB3LbKlo5W-129" target="KvxusKviVnBB3LbKlo5W-17">
          <mxGeometry relative="1" as="geometry" />
        </mxCell>
        <mxCell id="KvxusKviVnBB3LbKlo5W-136" style="edgeStyle=none;rounded=0;orthogonalLoop=1;jettySize=auto;html=1;entryX=0.998;entryY=0.581;entryDx=0;entryDy=0;entryPerimeter=0;endArrow=none;endFill=0;" edge="1" parent="1" source="KvxusKviVnBB3LbKlo5W-127" target="KvxusKviVnBB3LbKlo5W-17">
          <mxGeometry relative="1" as="geometry" />
        </mxCell>
        <mxCell id="KvxusKviVnBB3LbKlo5W-137" style="edgeStyle=none;rounded=0;orthogonalLoop=1;jettySize=auto;html=1;entryX=0.779;entryY=0.998;entryDx=0;entryDy=0;entryPerimeter=0;endArrow=none;endFill=0;" edge="1" parent="1" source="KvxusKviVnBB3LbKlo5W-124" target="KvxusKviVnBB3LbKlo5W-17">
          <mxGeometry relative="1" as="geometry" />
        </mxCell>
        <mxCell id="KvxusKviVnBB3LbKlo5W-138" value="Name" style="ellipse;whiteSpace=wrap;html=1;align=center;" vertex="1" parent="1">
          <mxGeometry x="540" y="1019.8800000000001" width="70" height="30" as="geometry" />
        </mxCell>
        <mxCell id="KvxusKviVnBB3LbKlo5W-139" value="Nic" style="ellipse;whiteSpace=wrap;html=1;align=center;" vertex="1" parent="1">
          <mxGeometry x="708.5" y="939.8800000000001" width="70" height="30" as="geometry" />
        </mxCell>
        <mxCell id="KvxusKviVnBB3LbKlo5W-140" value="Email" style="ellipse;whiteSpace=wrap;html=1;align=center;" vertex="1" parent="1">
          <mxGeometry x="610" y="959.8800000000001" width="70" height="30" as="geometry" />
        </mxCell>
        <mxCell id="KvxusKviVnBB3LbKlo5W-141" value="Phone" style="ellipse;shape=doubleEllipse;margin=3;whiteSpace=wrap;html=1;align=center;" vertex="1" parent="1">
          <mxGeometry x="800" y="969.8800000000001" width="60" height="30" as="geometry" />
        </mxCell>
        <mxCell id="KvxusKviVnBB3LbKlo5W-142" style="rounded=0;orthogonalLoop=1;jettySize=auto;html=1;entryX=1;entryY=0.5;entryDx=0;entryDy=0;endArrow=none;startFill=0;" edge="1" parent="1" source="KvxusKviVnBB3LbKlo5W-144" target="KvxusKviVnBB3LbKlo5W-145">
          <mxGeometry relative="1" as="geometry" />
        </mxCell>
        <mxCell id="KvxusKviVnBB3LbKlo5W-143" style="edgeStyle=none;rounded=0;orthogonalLoop=1;jettySize=auto;html=1;entryX=0;entryY=1;entryDx=0;entryDy=0;endArrow=none;endFill=0;" edge="1" parent="1" source="KvxusKviVnBB3LbKlo5W-144" target="KvxusKviVnBB3LbKlo5W-18">
          <mxGeometry relative="1" as="geometry" />
        </mxCell>
        <mxCell id="KvxusKviVnBB3LbKlo5W-144" value="Address" style="ellipse;whiteSpace=wrap;html=1;align=center;" vertex="1" parent="1">
          <mxGeometry x="590" y="1131.5" width="70" height="30" as="geometry" />
        </mxCell>
        <mxCell id="KvxusKviVnBB3LbKlo5W-145" value="No" style="ellipse;whiteSpace=wrap;html=1;align=center;" vertex="1" parent="1">
          <mxGeometry x="530" y="1106.5" width="40" height="20" as="geometry" />
        </mxCell>
        <mxCell id="KvxusKviVnBB3LbKlo5W-146" value="City" style="ellipse;whiteSpace=wrap;html=1;align=center;" vertex="1" parent="1">
          <mxGeometry x="520" y="1146.5" width="40" height="20" as="geometry" />
        </mxCell>
        <mxCell id="KvxusKviVnBB3LbKlo5W-147" value="Street" style="ellipse;whiteSpace=wrap;html=1;align=center;" vertex="1" parent="1">
          <mxGeometry x="540" y="1181.5" width="50" height="20" as="geometry" />
        </mxCell>
        <mxCell id="KvxusKviVnBB3LbKlo5W-148" style="rounded=0;orthogonalLoop=1;jettySize=auto;html=1;entryX=0.931;entryY=0.245;entryDx=0;entryDy=0;entryPerimeter=0;endArrow=none;startFill=0;" edge="1" parent="1" source="KvxusKviVnBB3LbKlo5W-144" target="KvxusKviVnBB3LbKlo5W-146">
          <mxGeometry relative="1" as="geometry" />
        </mxCell>
        <mxCell id="KvxusKviVnBB3LbKlo5W-149" style="rounded=0;orthogonalLoop=1;jettySize=auto;html=1;entryX=0.947;entryY=0.33;entryDx=0;entryDy=0;entryPerimeter=0;endArrow=none;startFill=0;" edge="1" parent="1" target="KvxusKviVnBB3LbKlo5W-147">
          <mxGeometry relative="1" as="geometry">
            <mxPoint x="613" y="1160.5" as="sourcePoint" />
          </mxGeometry>
        </mxCell>
        <mxCell id="KvxusKviVnBB3LbKlo5W-150" style="edgeStyle=none;rounded=0;orthogonalLoop=1;jettySize=auto;html=1;entryX=0;entryY=0.5;entryDx=0;entryDy=0;endArrow=none;endFill=0;" edge="1" parent="1" source="KvxusKviVnBB3LbKlo5W-138" target="KvxusKviVnBB3LbKlo5W-18">
          <mxGeometry relative="1" as="geometry" />
        </mxCell>
        <mxCell id="KvxusKviVnBB3LbKlo5W-151" style="edgeStyle=none;rounded=0;orthogonalLoop=1;jettySize=auto;html=1;entryX=0.061;entryY=-0.009;entryDx=0;entryDy=0;entryPerimeter=0;endArrow=none;endFill=0;" edge="1" parent="1" source="KvxusKviVnBB3LbKlo5W-140" target="KvxusKviVnBB3LbKlo5W-18">
          <mxGeometry relative="1" as="geometry" />
        </mxCell>
        <mxCell id="KvxusKviVnBB3LbKlo5W-152" style="edgeStyle=none;rounded=0;orthogonalLoop=1;jettySize=auto;html=1;entryX=0.382;entryY=-0.017;entryDx=0;entryDy=0;entryPerimeter=0;endArrow=none;endFill=0;" edge="1" parent="1" source="KvxusKviVnBB3LbKlo5W-139" target="KvxusKviVnBB3LbKlo5W-18">
          <mxGeometry relative="1" as="geometry" />
        </mxCell>
        <mxCell id="KvxusKviVnBB3LbKlo5W-153" style="edgeStyle=none;rounded=0;orthogonalLoop=1;jettySize=auto;html=1;entryX=0.628;entryY=-0.001;entryDx=0;entryDy=0;entryPerimeter=0;endArrow=none;endFill=0;" edge="1" parent="1" source="KvxusKviVnBB3LbKlo5W-141" target="KvxusKviVnBB3LbKlo5W-18">
          <mxGeometry relative="1" as="geometry" />
        </mxCell>
        <mxCell id="KvxusKviVnBB3LbKlo5W-154" value="Dob" style="ellipse;whiteSpace=wrap;html=1;align=center;" vertex="1" parent="1">
          <mxGeometry x="795" y="1129.8600000000001" width="70" height="30" as="geometry" />
        </mxCell>
        <mxCell id="KvxusKviVnBB3LbKlo5W-155" style="edgeStyle=none;rounded=0;orthogonalLoop=1;jettySize=auto;html=1;entryX=0.705;entryY=1.058;entryDx=0;entryDy=0;entryPerimeter=0;endArrow=none;endFill=0;" edge="1" parent="1" source="KvxusKviVnBB3LbKlo5W-154" target="KvxusKviVnBB3LbKlo5W-18">
          <mxGeometry relative="1" as="geometry" />
        </mxCell>
        <mxCell id="KvxusKviVnBB3LbKlo5W-156" style="edgeStyle=none;rounded=0;orthogonalLoop=1;jettySize=auto;html=1;entryX=1;entryY=0.75;entryDx=0;entryDy=0;endArrow=none;endFill=0;" edge="1" parent="1" source="KvxusKviVnBB3LbKlo5W-157" target="KvxusKviVnBB3LbKlo5W-10">
          <mxGeometry relative="1" as="geometry" />
        </mxCell>
        <mxCell id="KvxusKviVnBB3LbKlo5W-157" value="Dob" style="ellipse;whiteSpace=wrap;html=1;align=center;fontStyle=0" vertex="1" parent="1">
          <mxGeometry x="-117" y="479.98" width="75" height="30" as="geometry" />
        </mxCell>
        <mxCell id="KvxusKviVnBB3LbKlo5W-158" style="edgeStyle=none;rounded=0;orthogonalLoop=1;jettySize=auto;html=1;entryX=0.868;entryY=1;entryDx=0;entryDy=0;entryPerimeter=0;endArrow=none;endFill=0;" edge="1" parent="1" source="KvxusKviVnBB3LbKlo5W-159" target="KvxusKviVnBB3LbKlo5W-11">
          <mxGeometry relative="1" as="geometry">
            <mxPoint x="626.25" y="1310" as="targetPoint" />
          </mxGeometry>
        </mxCell>
        <mxCell id="KvxusKviVnBB3LbKlo5W-159" value="Dob" style="ellipse;whiteSpace=wrap;html=1;align=center;fontStyle=0" vertex="1" parent="1">
          <mxGeometry x="636.75" y="1396.69" width="75" height="30" as="geometry" />
        </mxCell>
        <mxCell id="KvxusKviVnBB3LbKlo5W-160" style="edgeStyle=none;rounded=0;orthogonalLoop=1;jettySize=auto;html=1;endArrow=none;endFill=0;" edge="1" parent="1" source="KvxusKviVnBB3LbKlo5W-161" target="KvxusKviVnBB3LbKlo5W-14">
          <mxGeometry relative="1" as="geometry" />
        </mxCell>
        <mxCell id="KvxusKviVnBB3LbKlo5W-161" value="Dob" style="ellipse;whiteSpace=wrap;html=1;align=center;fontStyle=0" vertex="1" parent="1">
          <mxGeometry x="551" y="620" width="75" height="30" as="geometry" />
        </mxCell>
        <mxCell id="KvxusKviVnBB3LbKlo5W-162" style="edgeStyle=none;rounded=0;orthogonalLoop=1;jettySize=auto;html=1;entryX=0.997;entryY=0.984;entryDx=0;entryDy=0;endArrow=none;endFill=0;entryPerimeter=0;" edge="1" parent="1" source="KvxusKviVnBB3LbKlo5W-163" target="KvxusKviVnBB3LbKlo5W-17">
          <mxGeometry relative="1" as="geometry" />
        </mxCell>
        <mxCell id="KvxusKviVnBB3LbKlo5W-163" value="Education_lvl" style="ellipse;whiteSpace=wrap;html=1;align=center;" vertex="1" parent="1">
          <mxGeometry x="393.5" y="489.54" width="90" height="30" as="geometry" />
        </mxCell>
        <mxCell id="KvxusKviVnBB3LbKlo5W-164" value="&lt;span style=&quot;text-decoration-line: underline;&quot;&gt;&lt;font style=&quot;color: rgb(18, 18, 18);&quot;&gt;St_id&lt;/font&gt;&lt;/span&gt;" style="ellipse;whiteSpace=wrap;html=1;align=center;fillColor=#60a917;fontColor=#ffffff;strokeColor=#2D7600;" vertex="1" parent="1">
          <mxGeometry x="-359.13" y="662.5" width="49.5" height="30" as="geometry" />
        </mxCell>
        <mxCell id="KvxusKviVnBB3LbKlo5W-165" style="rounded=0;orthogonalLoop=1;jettySize=auto;html=1;entryX=0.5;entryY=1;entryDx=0;entryDy=0;endArrow=none;endFill=0;" edge="1" parent="1" source="KvxusKviVnBB3LbKlo5W-166" target="KvxusKviVnBB3LbKlo5W-41">
          <mxGeometry relative="1" as="geometry" />
        </mxCell>
        <mxCell id="KvxusKviVnBB3LbKlo5W-166" value="Level" style="ellipse;whiteSpace=wrap;html=1;align=center;" vertex="1" parent="1">
          <mxGeometry x="18.5" y="812.12" width="70" height="32.5" as="geometry" />
        </mxCell>
        <mxCell id="KvxusKviVnBB3LbKlo5W-167" value="Status&lt;br&gt;Practical?theory/Medical" style="ellipse;whiteSpace=wrap;html=1;align=center;" vertex="1" parent="1">
          <mxGeometry x="-758" y="1180.69" width="110" height="60" as="geometry" />
        </mxCell>
        <mxCell id="KvxusKviVnBB3LbKlo5W-168" style="rounded=0;orthogonalLoop=1;jettySize=auto;html=1;entryX=0.608;entryY=1.02;entryDx=0;entryDy=0;entryPerimeter=0;endArrow=none;endFill=0;" edge="1" parent="1" source="KvxusKviVnBB3LbKlo5W-167" target="KvxusKviVnBB3LbKlo5W-35">
          <mxGeometry relative="1" as="geometry" />
        </mxCell>
        <mxCell id="KvxusKviVnBB3LbKlo5W-169" value="" style="edgeStyle=none;rounded=0;orthogonalLoop=1;jettySize=auto;html=1;exitX=1.014;exitY=0.595;exitDx=0;exitDy=0;exitPerimeter=0;" edge="1" parent="1" source="KvxusKviVnBB3LbKlo5W-21" target="KvxusKviVnBB3LbKlo5W-170">
          <mxGeometry relative="1" as="geometry">
            <mxPoint x="349" y="1092.11" as="targetPoint" />
            <mxPoint x="275" y="1051.11" as="sourcePoint" />
          </mxGeometry>
        </mxCell>
        <mxCell id="KvxusKviVnBB3LbKlo5W-170" value="Lec_id" style="ellipse;whiteSpace=wrap;html=1;align=center;fillColor=#008a00;fontColor=#ffffff;strokeColor=#005700;" vertex="1" parent="1">
          <mxGeometry x="379" y="1102.11" width="86" height="40" as="geometry" />
        </mxCell>
        <mxCell id="KvxusKviVnBB3LbKlo5W-171" value="SESSION" style="shape=ext;margin=3;double=1;whiteSpace=wrap;html=1;align=center;" vertex="1" parent="1">
          <mxGeometry x="-330.97" y="1140.6900000000003" width="100" height="40" as="geometry" />
        </mxCell>
        <mxCell id="KvxusKviVnBB3LbKlo5W-172" style="edgeStyle=none;rounded=0;orthogonalLoop=1;jettySize=auto;html=1;endArrow=none;startFill=0;" edge="1" parent="1" source="KvxusKviVnBB3LbKlo5W-173" target="KvxusKviVnBB3LbKlo5W-171">
          <mxGeometry relative="1" as="geometry" />
        </mxCell>
        <mxCell id="KvxusKviVnBB3LbKlo5W-173" value="&lt;u&gt;Session_id&lt;/u&gt;" style="ellipse;whiteSpace=wrap;html=1;align=center;" vertex="1" parent="1">
          <mxGeometry x="-404.97" y="1085.6900000000003" width="90" height="30" as="geometry" />
        </mxCell>
        <mxCell id="KvxusKviVnBB3LbKlo5W-174" style="edgeStyle=none;rounded=0;orthogonalLoop=1;jettySize=auto;html=1;entryX=0.25;entryY=1;entryDx=0;entryDy=0;endArrow=none;startFill=0;" edge="1" parent="1" source="KvxusKviVnBB3LbKlo5W-175" target="KvxusKviVnBB3LbKlo5W-171">
          <mxGeometry relative="1" as="geometry" />
        </mxCell>
        <mxCell id="KvxusKviVnBB3LbKlo5W-175" value="C_code" style="ellipse;whiteSpace=wrap;html=1;align=center;fillColor=#008a00;fontColor=#ffffff;strokeColor=#005700;" vertex="1" parent="1">
          <mxGeometry x="-405.97" y="1210.6900000000003" width="60" height="30" as="geometry" />
        </mxCell>
        <mxCell id="KvxusKviVnBB3LbKlo5W-176" style="edgeStyle=none;rounded=0;orthogonalLoop=1;jettySize=auto;html=1;endArrow=none;startFill=0;" edge="1" parent="1" source="KvxusKviVnBB3LbKlo5W-177" target="KvxusKviVnBB3LbKlo5W-171">
          <mxGeometry relative="1" as="geometry" />
        </mxCell>
        <mxCell id="KvxusKviVnBB3LbKlo5W-177" value="Type" style="ellipse;whiteSpace=wrap;html=1;align=center;" vertex="1" parent="1">
          <mxGeometry x="-187" y="1150.69" width="57" height="29.31" as="geometry" />
        </mxCell>
        <mxCell id="KvxusKviVnBB3LbKlo5W-178" style="edgeStyle=none;rounded=0;orthogonalLoop=1;jettySize=auto;html=1;endArrow=none;endFill=0;" edge="1" parent="1" source="KvxusKviVnBB3LbKlo5W-180">
          <mxGeometry relative="1" as="geometry">
            <mxPoint x="189" y="1031" as="targetPoint" />
          </mxGeometry>
        </mxCell>
        <mxCell id="KvxusKviVnBB3LbKlo5W-179" value="1" style="edgeLabel;html=1;align=center;verticalAlign=middle;resizable=0;points=[];" vertex="1" connectable="0" parent="KvxusKviVnBB3LbKlo5W-178">
          <mxGeometry x="0.7948" y="1" relative="1" as="geometry">
            <mxPoint as="offset" />
          </mxGeometry>
        </mxCell>
        <mxCell id="KvxusKviVnBB3LbKlo5W-180" value="HAS" style="shape=rhombus;double=1;perimeter=rhombusPerimeter;whiteSpace=wrap;html=1;align=center;" vertex="1" parent="1">
          <mxGeometry x="-147.54" y="1000" width="81" height="51" as="geometry" />
        </mxCell>
        <mxCell id="KvxusKviVnBB3LbKlo5W-181" style="edgeStyle=none;rounded=0;orthogonalLoop=1;jettySize=auto;html=1;endArrow=none;endFill=0;entryX=1;entryY=0;entryDx=0;entryDy=0;exitX=0;exitY=0.5;exitDx=0;exitDy=0;" edge="1" parent="1" source="KvxusKviVnBB3LbKlo5W-180" target="KvxusKviVnBB3LbKlo5W-171">
          <mxGeometry relative="1" as="geometry">
            <mxPoint x="-36.53999999999999" y="1171" as="targetPoint" />
          </mxGeometry>
        </mxCell>
        <mxCell id="KvxusKviVnBB3LbKlo5W-182" value="M" style="edgeLabel;html=1;align=center;verticalAlign=middle;resizable=0;points=[];" vertex="1" connectable="0" parent="KvxusKviVnBB3LbKlo5W-181">
          <mxGeometry x="0.6253" y="-2" relative="1" as="geometry">
            <mxPoint as="offset" />
          </mxGeometry>
        </mxCell>
        <mxCell id="KvxusKviVnBB3LbKlo5W-183" style="edgeStyle=none;rounded=0;orthogonalLoop=1;jettySize=auto;html=1;entryX=0;entryY=0.25;entryDx=0;entryDy=0;" edge="1" parent="1" source="KvxusKviVnBB3LbKlo5W-184" target="KvxusKviVnBB3LbKlo5W-35">
          <mxGeometry relative="1" as="geometry" />
        </mxCell>
        <mxCell id="KvxusKviVnBB3LbKlo5W-184" value="&lt;u&gt;St_id&lt;/u&gt;" style="ellipse;whiteSpace=wrap;html=1;align=center;fillColor=#60a917;fontColor=#ffffff;strokeColor=#2D7600;" vertex="1" parent="1">
          <mxGeometry x="-981" y="1055.69" width="70" height="30" as="geometry" />
        </mxCell>
        <mxCell id="KvxusKviVnBB3LbKlo5W-185" style="edgeStyle=none;rounded=0;orthogonalLoop=1;jettySize=auto;html=1;entryX=0;entryY=0.5;entryDx=0;entryDy=0;endArrow=none;endFill=0;exitX=1;exitY=0.5;exitDx=0;exitDy=0;" edge="1" parent="1" source="KvxusKviVnBB3LbKlo5W-189" target="KvxusKviVnBB3LbKlo5W-171">
          <mxGeometry relative="1" as="geometry" />
        </mxCell>
        <mxCell id="KvxusKviVnBB3LbKlo5W-221" value="1" style="edgeLabel;html=1;align=center;verticalAlign=middle;resizable=0;points=[];" vertex="1" connectable="0" parent="KvxusKviVnBB3LbKlo5W-185">
          <mxGeometry x="0.5468" y="3" relative="1" as="geometry">
            <mxPoint as="offset" />
          </mxGeometry>
        </mxCell>
        <mxCell id="KvxusKviVnBB3LbKlo5W-187" style="edgeStyle=none;rounded=0;orthogonalLoop=1;jettySize=auto;html=1;entryX=1;entryY=0.5;entryDx=0;entryDy=0;endArrow=none;endFill=0;" edge="1" parent="1" source="KvxusKviVnBB3LbKlo5W-189" target="KvxusKviVnBB3LbKlo5W-35">
          <mxGeometry relative="1" as="geometry" />
        </mxCell>
        <mxCell id="KvxusKviVnBB3LbKlo5W-188" value="M" style="edgeLabel;html=1;align=center;verticalAlign=middle;resizable=0;points=[];" vertex="1" connectable="0" parent="KvxusKviVnBB3LbKlo5W-187">
          <mxGeometry x="0.5557" y="1" relative="1" as="geometry">
            <mxPoint x="1" as="offset" />
          </mxGeometry>
        </mxCell>
        <mxCell id="KvxusKviVnBB3LbKlo5W-189" value="HAS" style="shape=rhombus;double=1;perimeter=rhombusPerimeter;whiteSpace=wrap;html=1;align=center;" vertex="1" parent="1">
          <mxGeometry x="-580.5" y="1115.69" width="81" height="51" as="geometry" />
        </mxCell>
        <mxCell id="KvxusKviVnBB3LbKlo5W-190" style="edgeStyle=none;rounded=0;orthogonalLoop=1;jettySize=auto;html=1;endArrow=none;endFill=0;entryX=0;entryY=0;entryDx=0;entryDy=0;" edge="1" parent="1" source="KvxusKviVnBB3LbKlo5W-164" target="KvxusKviVnBB3LbKlo5W-36">
          <mxGeometry relative="1" as="geometry">
            <mxPoint x="-291.5" y="742.5" as="targetPoint" />
          </mxGeometry>
        </mxCell>
        <mxCell id="KvxusKviVnBB3LbKlo5W-191" style="edgeStyle=none;rounded=0;orthogonalLoop=1;jettySize=auto;html=1;endArrow=none;endFill=0;" edge="1" parent="1" source="KvxusKviVnBB3LbKlo5W-192" target="KvxusKviVnBB3LbKlo5W-38">
          <mxGeometry relative="1" as="geometry" />
        </mxCell>
        <mxCell id="KvxusKviVnBB3LbKlo5W-192" value="Quiz01" style="ellipse;whiteSpace=wrap;html=1;align=center;" vertex="1" parent="1">
          <mxGeometry x="-570" y="842.5" width="60" height="25" as="geometry" />
        </mxCell>
        <mxCell id="KvxusKviVnBB3LbKlo5W-193" value="Quiz02" style="ellipse;whiteSpace=wrap;html=1;align=center;" vertex="1" parent="1">
          <mxGeometry x="-505.25" y="842.5" width="60" height="25" as="geometry" />
        </mxCell>
        <mxCell id="KvxusKviVnBB3LbKlo5W-194" value="Quiz03" style="ellipse;whiteSpace=wrap;html=1;align=center;" vertex="1" parent="1">
          <mxGeometry x="-438.5" y="842.5" width="60" height="25" as="geometry" />
        </mxCell>
        <mxCell id="KvxusKviVnBB3LbKlo5W-195" value="Assignment" style="ellipse;whiteSpace=wrap;html=1;align=center;" vertex="1" parent="1">
          <mxGeometry x="-370.25" y="842.5" width="71.75" height="25" as="geometry" />
        </mxCell>
        <mxCell id="KvxusKviVnBB3LbKlo5W-196" style="edgeStyle=none;rounded=0;orthogonalLoop=1;jettySize=auto;html=1;entryX=1;entryY=1;entryDx=0;entryDy=0;endArrow=none;endFill=0;" edge="1" parent="1" source="KvxusKviVnBB3LbKlo5W-197" target="KvxusKviVnBB3LbKlo5W-38">
          <mxGeometry relative="1" as="geometry" />
        </mxCell>
        <mxCell id="KvxusKviVnBB3LbKlo5W-197" value="Mid" style="ellipse;whiteSpace=wrap;html=1;align=center;" vertex="1" parent="1">
          <mxGeometry x="-289.5" y="842.5" width="41" height="25" as="geometry" />
        </mxCell>
        <mxCell id="KvxusKviVnBB3LbKlo5W-198" style="edgeStyle=none;rounded=0;orthogonalLoop=1;jettySize=auto;html=1;entryX=1;entryY=0.5;entryDx=0;entryDy=0;endArrow=none;endFill=0;" edge="1" parent="1" source="KvxusKviVnBB3LbKlo5W-199" target="KvxusKviVnBB3LbKlo5W-38">
          <mxGeometry relative="1" as="geometry" />
        </mxCell>
        <mxCell id="KvxusKviVnBB3LbKlo5W-199" value="Final" style="ellipse;whiteSpace=wrap;html=1;align=center;" vertex="1" parent="1">
          <mxGeometry x="-244" y="842.5" width="45.5" height="25" as="geometry" />
        </mxCell>
        <mxCell id="KvxusKviVnBB3LbKlo5W-200" style="edgeStyle=none;rounded=0;orthogonalLoop=1;jettySize=auto;html=1;endArrow=none;endFill=0;entryX=0.222;entryY=0.924;entryDx=0;entryDy=0;entryPerimeter=0;" edge="1" parent="1" source="KvxusKviVnBB3LbKlo5W-193" target="KvxusKviVnBB3LbKlo5W-38">
          <mxGeometry relative="1" as="geometry">
            <mxPoint x="-395.5" y="806.5" as="targetPoint" />
          </mxGeometry>
        </mxCell>
        <mxCell id="KvxusKviVnBB3LbKlo5W-201" style="edgeStyle=none;rounded=0;orthogonalLoop=1;jettySize=auto;html=1;entryX=0.333;entryY=0.977;entryDx=0;entryDy=0;entryPerimeter=0;endArrow=none;endFill=0;" edge="1" parent="1" source="KvxusKviVnBB3LbKlo5W-194" target="KvxusKviVnBB3LbKlo5W-38">
          <mxGeometry relative="1" as="geometry" />
        </mxCell>
        <mxCell id="KvxusKviVnBB3LbKlo5W-202" style="edgeStyle=none;rounded=0;orthogonalLoop=1;jettySize=auto;html=1;entryX=0.635;entryY=0.989;entryDx=0;entryDy=0;entryPerimeter=0;endArrow=none;endFill=0;" edge="1" parent="1" source="KvxusKviVnBB3LbKlo5W-195" target="KvxusKviVnBB3LbKlo5W-38">
          <mxGeometry relative="1" as="geometry" />
        </mxCell>
        <mxCell id="KvxusKviVnBB3LbKlo5W-203" style="edgeStyle=none;rounded=0;orthogonalLoop=1;jettySize=auto;html=1;entryX=0;entryY=0.5;entryDx=0;entryDy=0;endArrow=none;endFill=0;" edge="1" parent="1" source="KvxusKviVnBB3LbKlo5W-204" target="KvxusKviVnBB3LbKlo5W-36">
          <mxGeometry relative="1" as="geometry" />
        </mxCell>
        <mxCell id="KvxusKviVnBB3LbKlo5W-204" value="&lt;font style=&quot;color: rgb(18, 18, 18);&quot;&gt;C_code&lt;/font&gt;" style="ellipse;whiteSpace=wrap;html=1;align=center;fillColor=#60a917;strokeColor=#2D7600;fontStyle=4;fontColor=#ffffff;" vertex="1" parent="1">
          <mxGeometry x="-428" y="717.5" width="49.5" height="30" as="geometry" />
        </mxCell>
        <mxCell id="KvxusKviVnBB3LbKlo5W-205" style="edgeStyle=none;rounded=0;orthogonalLoop=1;jettySize=auto;html=1;entryX=1;entryY=1;entryDx=0;entryDy=0;endArrow=none;endFill=0;jumpStyle=arc;jumpSize=9;exitX=0.5;exitY=0;exitDx=0;exitDy=0;" edge="1" parent="1" source="KvxusKviVnBB3LbKlo5W-41" target="KvxusKviVnBB3LbKlo5W-10">
          <mxGeometry relative="1" as="geometry">
            <mxPoint x="-325.5" y="832.5000000000002" as="sourcePoint" />
          </mxGeometry>
        </mxCell>
        <mxCell id="KvxusKviVnBB3LbKlo5W-206" value="N" style="edgeLabel;html=1;align=center;verticalAlign=middle;resizable=0;points=[];" vertex="1" connectable="0" parent="KvxusKviVnBB3LbKlo5W-205">
          <mxGeometry x="0.8177" y="1" relative="1" as="geometry">
            <mxPoint as="offset" />
          </mxGeometry>
        </mxCell>
        <mxCell id="KvxusKviVnBB3LbKlo5W-207" style="edgeStyle=none;rounded=0;orthogonalLoop=1;jettySize=auto;html=1;entryX=0.25;entryY=1;entryDx=0;entryDy=0;endArrow=none;endFill=0;" edge="1" parent="1" source="KvxusKviVnBB3LbKlo5W-208" target="KvxusKviVnBB3LbKlo5W-35">
          <mxGeometry relative="1" as="geometry" />
        </mxCell>
        <mxCell id="KvxusKviVnBB3LbKlo5W-208" value="&lt;u&gt;Week_no&lt;/u&gt;" style="ellipse;whiteSpace=wrap;html=1;align=center;" vertex="1" parent="1">
          <mxGeometry x="-885" y="1180.6900000000003" width="70.5" height="30" as="geometry" />
        </mxCell>
        <mxCell id="KvxusKviVnBB3LbKlo5W-209" style="edgeStyle=none;rounded=0;orthogonalLoop=1;jettySize=auto;html=1;entryX=-0.006;entryY=0.624;entryDx=0;entryDy=0;entryPerimeter=0;" edge="1" parent="1" source="KvxusKviVnBB3LbKlo5W-210" target="KvxusKviVnBB3LbKlo5W-35">
          <mxGeometry relative="1" as="geometry" />
        </mxCell>
        <mxCell id="KvxusKviVnBB3LbKlo5W-210" value="&lt;u&gt;Session_id&lt;/u&gt;" style="ellipse;whiteSpace=wrap;html=1;align=center;fillColor=#008a00;fontColor=#ffffff;strokeColor=#005700;" vertex="1" parent="1">
          <mxGeometry x="-976" y="1155.6900000000003" width="60" height="30" as="geometry" />
        </mxCell>
        <mxCell id="KvxusKviVnBB3LbKlo5W-211" value="Dob" style="ellipse;whiteSpace=wrap;html=1;align=center;" vertex="1" parent="1">
          <mxGeometry x="153.5" y="352.92" width="40" height="30" as="geometry" />
        </mxCell>
        <mxCell id="KvxusKviVnBB3LbKlo5W-212" style="edgeStyle=none;rounded=0;orthogonalLoop=1;jettySize=auto;html=1;entryX=0;entryY=0;entryDx=0;entryDy=0;endArrow=none;endFill=0;" edge="1" parent="1" source="KvxusKviVnBB3LbKlo5W-211" target="KvxusKviVnBB3LbKlo5W-17">
          <mxGeometry relative="1" as="geometry" />
        </mxCell>
        <mxCell id="KvxusKviVnBB3LbKlo5W-213" value="HAS" style="shape=rhombus;double=1;perimeter=rhombusPerimeter;whiteSpace=wrap;html=1;align=center;" vertex="1" parent="1">
          <mxGeometry x="-281" y="569" width="80" height="41" as="geometry" />
        </mxCell>
        <mxCell id="KvxusKviVnBB3LbKlo5W-214" style="rounded=0;orthogonalLoop=1;jettySize=auto;html=1;entryX=0.478;entryY=-0.003;entryDx=0;entryDy=0;entryPerimeter=0;endArrow=none;endFill=0;" edge="1" parent="1" source="KvxusKviVnBB3LbKlo5W-213" target="KvxusKviVnBB3LbKlo5W-36">
          <mxGeometry relative="1" as="geometry" />
        </mxCell>
        <mxCell id="KvxusKviVnBB3LbKlo5W-215" value="N" style="edgeLabel;html=1;align=center;verticalAlign=middle;resizable=0;points=[];" vertex="1" connectable="0" parent="KvxusKviVnBB3LbKlo5W-214">
          <mxGeometry x="0.6343" y="1" relative="1" as="geometry">
            <mxPoint as="offset" />
          </mxGeometry>
        </mxCell>
        <mxCell id="KvxusKviVnBB3LbKlo5W-216" style="rounded=0;orthogonalLoop=1;jettySize=auto;html=1;endArrow=none;endFill=0;entryX=0.611;entryY=0.998;entryDx=0;entryDy=0;entryPerimeter=0;" edge="1" parent="1" source="KvxusKviVnBB3LbKlo5W-220" target="KvxusKviVnBB3LbKlo5W-36">
          <mxGeometry relative="1" as="geometry">
            <mxPoint x="-210" y="750" as="targetPoint" />
          </mxGeometry>
        </mxCell>
        <mxCell id="KvxusKviVnBB3LbKlo5W-217" value="N" style="edgeLabel;html=1;align=center;verticalAlign=middle;resizable=0;points=[];" vertex="1" connectable="0" parent="KvxusKviVnBB3LbKlo5W-216">
          <mxGeometry x="0.5329" y="-1" relative="1" as="geometry">
            <mxPoint as="offset" />
          </mxGeometry>
        </mxCell>
        <mxCell id="KvxusKviVnBB3LbKlo5W-218" style="rounded=0;orthogonalLoop=1;jettySize=auto;html=1;entryX=0;entryY=0.25;entryDx=0;entryDy=0;endArrow=none;endFill=0;" edge="1" parent="1" source="KvxusKviVnBB3LbKlo5W-220" target="KvxusKviVnBB3LbKlo5W-21">
          <mxGeometry relative="1" as="geometry" />
        </mxCell>
        <mxCell id="KvxusKviVnBB3LbKlo5W-219" value="1" style="edgeLabel;html=1;align=center;verticalAlign=middle;resizable=0;points=[];" vertex="1" connectable="0" parent="KvxusKviVnBB3LbKlo5W-218">
          <mxGeometry x="0.7021" y="-2" relative="1" as="geometry">
            <mxPoint as="offset" />
          </mxGeometry>
        </mxCell>
        <mxCell id="KvxusKviVnBB3LbKlo5W-220" value="Has" style="shape=rhombus;double=1;perimeter=rhombusPerimeter;whiteSpace=wrap;html=1;align=center;" vertex="1" parent="1">
          <mxGeometry x="-161" y="856" width="81" height="54" as="geometry" />
        </mxCell>
      </root>
    </mxGraphModel>
  </diagram>
  <diagram name="RM (for ER Final)" id="EUXj6qM1TaqnJcuh6fNx">
    <mxGraphModel dx="772" dy="369" grid="1" gridSize="10" guides="1" tooltips="1" connect="1" arrows="1" fold="1" page="1" pageScale="1" pageWidth="827" pageHeight="1169" math="0" shadow="0">
      <root>
        <mxCell id="_tiB8tEmEpVmkrLslOVU-0" />
        <mxCell id="_tiB8tEmEpVmkrLslOVU-1" parent="_tiB8tEmEpVmkrLslOVU-0" />
        <mxCell id="tT7prj-xix1qQhtasbN7-0" value="" style="shape=table;startSize=0;container=1;collapsible=0;childLayout=tableLayout;" parent="_tiB8tEmEpVmkrLslOVU-1" vertex="1">
          <mxGeometry x="80" y="40" width="640" height="40" as="geometry" />
        </mxCell>
        <mxCell id="tT7prj-xix1qQhtasbN7-1" value="" style="shape=tableRow;horizontal=0;startSize=0;swimlaneHead=0;swimlaneBody=0;strokeColor=inherit;top=0;left=0;bottom=0;right=0;collapsible=0;dropTarget=0;fillColor=none;points=[[0,0.5],[1,0.5]];portConstraint=eastwest;" parent="tT7prj-xix1qQhtasbN7-0" vertex="1">
          <mxGeometry width="640" height="40" as="geometry" />
        </mxCell>
        <mxCell id="tT7prj-xix1qQhtasbN7-2" value="&lt;u&gt;St_id&lt;/u&gt;" style="shape=partialRectangle;html=1;whiteSpace=wrap;connectable=0;strokeColor=inherit;overflow=hidden;fillColor=none;top=0;left=0;bottom=0;right=0;pointerEvents=1;" parent="tT7prj-xix1qQhtasbN7-1" vertex="1">
          <mxGeometry width="99" height="40" as="geometry">
            <mxRectangle width="99" height="40" as="alternateBounds" />
          </mxGeometry>
        </mxCell>
        <mxCell id="tT7prj-xix1qQhtasbN7-3" value="" style="shape=partialRectangle;html=1;whiteSpace=wrap;connectable=0;strokeColor=inherit;overflow=hidden;fillColor=none;top=0;left=0;bottom=0;right=0;pointerEvents=1;" parent="tT7prj-xix1qQhtasbN7-1" vertex="1">
          <mxGeometry x="99" width="59" height="40" as="geometry">
            <mxRectangle width="59" height="40" as="alternateBounds" />
          </mxGeometry>
        </mxCell>
        <mxCell id="tT7prj-xix1qQhtasbN7-4" value="City" style="shape=partialRectangle;html=1;whiteSpace=wrap;connectable=0;strokeColor=inherit;overflow=hidden;fillColor=none;top=0;left=0;bottom=0;right=0;pointerEvents=1;" parent="tT7prj-xix1qQhtasbN7-1" vertex="1">
          <mxGeometry x="158" width="69" height="40" as="geometry">
            <mxRectangle width="69" height="40" as="alternateBounds" />
          </mxGeometry>
        </mxCell>
        <mxCell id="tT7prj-xix1qQhtasbN7-5" value="Street" style="shape=partialRectangle;html=1;whiteSpace=wrap;connectable=0;strokeColor=inherit;overflow=hidden;fillColor=none;top=0;left=0;bottom=0;right=0;pointerEvents=1;" parent="tT7prj-xix1qQhtasbN7-1" vertex="1">
          <mxGeometry x="227" width="59" height="40" as="geometry">
            <mxRectangle width="59" height="40" as="alternateBounds" />
          </mxGeometry>
        </mxCell>
        <mxCell id="tT7prj-xix1qQhtasbN7-6" value="" style="shape=partialRectangle;html=1;whiteSpace=wrap;connectable=0;strokeColor=inherit;overflow=hidden;fillColor=none;top=0;left=0;bottom=0;right=0;pointerEvents=1;" parent="tT7prj-xix1qQhtasbN7-1" vertex="1">
          <mxGeometry x="286" width="76" height="40" as="geometry">
            <mxRectangle width="76" height="40" as="alternateBounds" />
          </mxGeometry>
        </mxCell>
        <mxCell id="tT7prj-xix1qQhtasbN7-7" value="" style="shape=partialRectangle;html=1;whiteSpace=wrap;connectable=0;strokeColor=inherit;overflow=hidden;fillColor=none;top=0;left=0;bottom=0;right=0;pointerEvents=1;" parent="tT7prj-xix1qQhtasbN7-1" vertex="1">
          <mxGeometry x="362" width="58" height="40" as="geometry">
            <mxRectangle width="58" height="40" as="alternateBounds" />
          </mxGeometry>
        </mxCell>
        <mxCell id="tT7prj-xix1qQhtasbN7-8" value="" style="shape=partialRectangle;html=1;whiteSpace=wrap;connectable=0;strokeColor=inherit;overflow=hidden;fillColor=none;top=0;left=0;bottom=0;right=0;pointerEvents=1;" parent="tT7prj-xix1qQhtasbN7-1" vertex="1">
          <mxGeometry x="420" width="60" height="40" as="geometry">
            <mxRectangle width="60" height="40" as="alternateBounds" />
          </mxGeometry>
        </mxCell>
        <mxCell id="tT7prj-xix1qQhtasbN7-9" value="" style="shape=partialRectangle;html=1;whiteSpace=wrap;connectable=0;strokeColor=inherit;overflow=hidden;fillColor=none;top=0;left=0;bottom=0;right=0;pointerEvents=1;" parent="tT7prj-xix1qQhtasbN7-1" vertex="1">
          <mxGeometry x="480" width="70" height="40" as="geometry">
            <mxRectangle width="70" height="40" as="alternateBounds" />
          </mxGeometry>
        </mxCell>
        <mxCell id="tT7prj-xix1qQhtasbN7-10" value="" style="shape=partialRectangle;html=1;whiteSpace=wrap;connectable=0;strokeColor=inherit;overflow=hidden;fillColor=none;top=0;left=0;bottom=0;right=0;pointerEvents=1;" parent="tT7prj-xix1qQhtasbN7-1" vertex="1">
          <mxGeometry x="550" width="90" height="40" as="geometry">
            <mxRectangle width="90" height="40" as="alternateBounds" />
          </mxGeometry>
        </mxCell>
        <mxCell id="a8w17MpJCS2gWCcQ4iQM-0" value="" style="shape=table;startSize=0;container=1;collapsible=0;childLayout=tableLayout;" parent="_tiB8tEmEpVmkrLslOVU-1" vertex="1">
          <mxGeometry x="80" y="200" width="120" height="40" as="geometry" />
        </mxCell>
        <mxCell id="a8w17MpJCS2gWCcQ4iQM-1" value="" style="shape=tableRow;horizontal=0;startSize=0;swimlaneHead=0;swimlaneBody=0;strokeColor=inherit;top=0;left=0;bottom=0;right=0;collapsible=0;dropTarget=0;fillColor=none;points=[[0,0.5],[1,0.5]];portConstraint=eastwest;" parent="a8w17MpJCS2gWCcQ4iQM-0" vertex="1">
          <mxGeometry width="120" height="40" as="geometry" />
        </mxCell>
        <mxCell id="a8w17MpJCS2gWCcQ4iQM-2" value="&lt;u&gt;St_id&lt;/u&gt;" style="shape=partialRectangle;html=1;whiteSpace=wrap;connectable=0;strokeColor=inherit;overflow=hidden;fillColor=none;top=0;left=0;bottom=0;right=0;pointerEvents=1;" parent="a8w17MpJCS2gWCcQ4iQM-1" vertex="1">
          <mxGeometry width="60" height="40" as="geometry">
            <mxRectangle width="60" height="40" as="alternateBounds" />
          </mxGeometry>
        </mxCell>
        <mxCell id="a8w17MpJCS2gWCcQ4iQM-3" value="&lt;u&gt;Phone&lt;/u&gt;" style="shape=partialRectangle;html=1;whiteSpace=wrap;connectable=0;strokeColor=inherit;overflow=hidden;fillColor=none;top=0;left=0;bottom=0;right=0;pointerEvents=1;" parent="a8w17MpJCS2gWCcQ4iQM-1" vertex="1">
          <mxGeometry x="60" width="60" height="40" as="geometry">
            <mxRectangle width="60" height="40" as="alternateBounds" />
          </mxGeometry>
        </mxCell>
        <mxCell id="a8w17MpJCS2gWCcQ4iQM-4" value="STUDENT_PHONE" style="text;html=1;align=left;verticalAlign=middle;resizable=0;points=[];autosize=1;strokeColor=none;fillColor=none;" parent="_tiB8tEmEpVmkrLslOVU-1" vertex="1">
          <mxGeometry x="80" y="170" width="130" height="30" as="geometry" />
        </mxCell>
        <mxCell id="DI4peuhaci5z_CWcxidW-0" value="STUDENT" style="text;html=1;align=left;verticalAlign=middle;resizable=0;points=[];autosize=1;strokeColor=none;fillColor=none;" parent="_tiB8tEmEpVmkrLslOVU-1" vertex="1">
          <mxGeometry x="80" y="10" width="80" height="30" as="geometry" />
        </mxCell>
        <mxCell id="DI4peuhaci5z_CWcxidW-2" style="edgeStyle=orthogonalEdgeStyle;rounded=0;orthogonalLoop=1;jettySize=auto;html=1;entryX=0.141;entryY=1;entryDx=0;entryDy=0;entryPerimeter=0;exitX=0.25;exitY=1;exitDx=0;exitDy=0;" parent="_tiB8tEmEpVmkrLslOVU-1" source="a8w17MpJCS2gWCcQ4iQM-0" target="tT7prj-xix1qQhtasbN7-0" edge="1">
          <mxGeometry relative="1" as="geometry">
            <mxPoint x="170" y="90" as="targetPoint" />
            <Array as="points">
              <mxPoint x="110" y="250" />
              <mxPoint x="220" y="250" />
              <mxPoint x="220" y="160" />
              <mxPoint x="170" y="160" />
            </Array>
          </mxGeometry>
        </mxCell>
        <mxCell id="n-RmndSrbS7McS8RLStx-0" style="edgeStyle=orthogonalEdgeStyle;rounded=0;orthogonalLoop=1;jettySize=auto;html=1;exitX=0.189;exitY=1.014;exitDx=0;exitDy=0;entryX=0.122;entryY=1;entryDx=0;entryDy=0;entryPerimeter=0;exitPerimeter=0;" parent="_tiB8tEmEpVmkrLslOVU-1" source="W0IIi7LNAk5jsdLd20-b-0" target="tT7prj-xix1qQhtasbN7-1" edge="1">
          <mxGeometry relative="1" as="geometry">
            <mxPoint x="160" y="90" as="targetPoint" />
            <Array as="points">
              <mxPoint x="120" y="370" />
              <mxPoint x="60" y="370" />
              <mxPoint x="60" y="160" />
              <mxPoint x="158" y="160" />
            </Array>
          </mxGeometry>
        </mxCell>
        <mxCell id="W0IIi7LNAk5jsdLd20-b-0" value="" style="shape=table;startSize=0;container=1;collapsible=0;childLayout=tableLayout;" parent="_tiB8tEmEpVmkrLslOVU-1" vertex="1">
          <mxGeometry x="80" y="317" width="210" height="40" as="geometry" />
        </mxCell>
        <mxCell id="W0IIi7LNAk5jsdLd20-b-1" value="" style="shape=tableRow;horizontal=0;startSize=0;swimlaneHead=0;swimlaneBody=0;strokeColor=inherit;top=0;left=0;bottom=0;right=0;collapsible=0;dropTarget=0;fillColor=none;points=[[0,0.5],[1,0.5]];portConstraint=eastwest;" parent="W0IIi7LNAk5jsdLd20-b-0" vertex="1">
          <mxGeometry width="210" height="40" as="geometry" />
        </mxCell>
        <mxCell id="W0IIi7LNAk5jsdLd20-b-3" value="St_id" style="shape=partialRectangle;html=1;whiteSpace=wrap;connectable=0;strokeColor=inherit;overflow=hidden;fillColor=none;top=0;left=0;bottom=0;right=0;pointerEvents=1;fontStyle=4" parent="W0IIi7LNAk5jsdLd20-b-1" vertex="1">
          <mxGeometry width="80" height="40" as="geometry">
            <mxRectangle width="80" height="40" as="alternateBounds" />
          </mxGeometry>
        </mxCell>
        <mxCell id="W0IIi7LNAk5jsdLd20-b-4" value="&lt;u&gt;Exam_id&lt;/u&gt;" style="shape=partialRectangle;html=1;whiteSpace=wrap;connectable=0;strokeColor=inherit;overflow=hidden;fillColor=none;top=0;left=0;bottom=0;right=0;pointerEvents=1;" parent="W0IIi7LNAk5jsdLd20-b-1" vertex="1">
          <mxGeometry x="80" width="60" height="40" as="geometry">
            <mxRectangle width="60" height="40" as="alternateBounds" />
          </mxGeometry>
        </mxCell>
        <mxCell id="W0IIi7LNAk5jsdLd20-b-5" value="&lt;div&gt;Marks&lt;/div&gt;" style="shape=partialRectangle;html=1;whiteSpace=wrap;connectable=0;strokeColor=inherit;overflow=hidden;fillColor=none;top=0;left=0;bottom=0;right=0;pointerEvents=1;" parent="W0IIi7LNAk5jsdLd20-b-1" vertex="1">
          <mxGeometry x="140" width="70" height="40" as="geometry">
            <mxRectangle width="70" height="40" as="alternateBounds" />
          </mxGeometry>
        </mxCell>
        <mxCell id="W0IIi7LNAk5jsdLd20-b-7" value="MARK" style="text;html=1;align=left;verticalAlign=middle;resizable=0;points=[];autosize=1;strokeColor=none;fillColor=none;" parent="_tiB8tEmEpVmkrLslOVU-1" vertex="1">
          <mxGeometry x="80" y="287" width="60" height="30" as="geometry" />
        </mxCell>
        <mxCell id="_232f9qkSqgT6TGqrWzG-0" value="" style="shape=table;startSize=0;container=1;collapsible=0;childLayout=tableLayout;" parent="_tiB8tEmEpVmkrLslOVU-1" vertex="1">
          <mxGeometry x="80" y="437" width="360" height="40" as="geometry" />
        </mxCell>
        <mxCell id="_232f9qkSqgT6TGqrWzG-1" value="" style="shape=tableRow;horizontal=0;startSize=0;swimlaneHead=0;swimlaneBody=0;strokeColor=inherit;top=0;left=0;bottom=0;right=0;collapsible=0;dropTarget=0;fillColor=none;points=[[0,0.5],[1,0.5]];portConstraint=eastwest;" parent="_232f9qkSqgT6TGqrWzG-0" vertex="1">
          <mxGeometry width="360" height="40" as="geometry" />
        </mxCell>
        <mxCell id="_232f9qkSqgT6TGqrWzG-2" value="Medical_id" style="shape=partialRectangle;html=1;whiteSpace=wrap;connectable=0;strokeColor=inherit;overflow=hidden;fillColor=none;top=0;left=0;bottom=0;right=0;pointerEvents=1;fontStyle=4" parent="_232f9qkSqgT6TGqrWzG-1" vertex="1">
          <mxGeometry width="77" height="40" as="geometry">
            <mxRectangle width="77" height="40" as="alternateBounds" />
          </mxGeometry>
        </mxCell>
        <mxCell id="_232f9qkSqgT6TGqrWzG-3" value="Status" style="shape=partialRectangle;html=1;whiteSpace=wrap;connectable=0;strokeColor=inherit;overflow=hidden;fillColor=none;top=0;left=0;bottom=0;right=0;pointerEvents=1;" parent="_232f9qkSqgT6TGqrWzG-1" vertex="1">
          <mxGeometry x="77" width="87" height="40" as="geometry">
            <mxRectangle width="87" height="40" as="alternateBounds" />
          </mxGeometry>
        </mxCell>
        <mxCell id="_232f9qkSqgT6TGqrWzG-4" value="Date_submitted" style="shape=partialRectangle;html=1;whiteSpace=wrap;connectable=0;strokeColor=inherit;overflow=hidden;fillColor=none;top=0;left=0;bottom=0;right=0;pointerEvents=1;" parent="_232f9qkSqgT6TGqrWzG-1" vertex="1">
          <mxGeometry x="164" width="126" height="40" as="geometry">
            <mxRectangle width="126" height="40" as="alternateBounds" />
          </mxGeometry>
        </mxCell>
        <mxCell id="_232f9qkSqgT6TGqrWzG-5" value="St_id" style="shape=partialRectangle;html=1;whiteSpace=wrap;connectable=0;strokeColor=inherit;overflow=hidden;fillColor=none;top=0;left=0;bottom=0;right=0;pointerEvents=1;" parent="_232f9qkSqgT6TGqrWzG-1" vertex="1">
          <mxGeometry x="290" width="70" height="40" as="geometry">
            <mxRectangle width="70" height="40" as="alternateBounds" />
          </mxGeometry>
        </mxCell>
        <mxCell id="LV1jHeiykwOVj8syV5hZ-1" value="" style="shape=table;startSize=0;container=1;collapsible=0;childLayout=tableLayout;" parent="_tiB8tEmEpVmkrLslOVU-1" vertex="1">
          <mxGeometry x="80" y="550" width="290" height="40" as="geometry" />
        </mxCell>
        <mxCell id="LV1jHeiykwOVj8syV5hZ-2" value="" style="shape=tableRow;horizontal=0;startSize=0;swimlaneHead=0;swimlaneBody=0;strokeColor=inherit;top=0;left=0;bottom=0;right=0;collapsible=0;dropTarget=0;fillColor=none;points=[[0,0.5],[1,0.5]];portConstraint=eastwest;" parent="LV1jHeiykwOVj8syV5hZ-1" vertex="1">
          <mxGeometry width="290" height="40" as="geometry" />
        </mxCell>
        <mxCell id="LV1jHeiykwOVj8syV5hZ-3" value="C_code" style="shape=partialRectangle;html=1;whiteSpace=wrap;connectable=0;strokeColor=inherit;overflow=hidden;fillColor=none;top=0;left=0;bottom=0;right=0;pointerEvents=1;fontStyle=4" parent="LV1jHeiykwOVj8syV5hZ-2" vertex="1">
          <mxGeometry width="70" height="40" as="geometry">
            <mxRectangle width="70" height="40" as="alternateBounds" />
          </mxGeometry>
        </mxCell>
        <mxCell id="LV1jHeiykwOVj8syV5hZ-4" value="C_name" style="shape=partialRectangle;html=1;whiteSpace=wrap;connectable=0;strokeColor=inherit;overflow=hidden;fillColor=none;top=0;left=0;bottom=0;right=0;pointerEvents=1;" parent="LV1jHeiykwOVj8syV5hZ-2" vertex="1">
          <mxGeometry x="70" width="80" height="40" as="geometry">
            <mxRectangle width="80" height="40" as="alternateBounds" />
          </mxGeometry>
        </mxCell>
        <mxCell id="LV1jHeiykwOVj8syV5hZ-5" value="Credit" style="shape=partialRectangle;html=1;whiteSpace=wrap;connectable=0;strokeColor=inherit;overflow=hidden;fillColor=none;top=0;left=0;bottom=0;right=0;pointerEvents=1;" parent="LV1jHeiykwOVj8syV5hZ-2" vertex="1">
          <mxGeometry x="150" width="80" height="40" as="geometry">
            <mxRectangle width="80" height="40" as="alternateBounds" />
          </mxGeometry>
        </mxCell>
        <mxCell id="LV1jHeiykwOVj8syV5hZ-7" value="Lec_id" style="shape=partialRectangle;html=1;whiteSpace=wrap;connectable=0;strokeColor=inherit;overflow=hidden;fillColor=none;top=0;left=0;bottom=0;right=0;pointerEvents=1;fontStyle=0" parent="LV1jHeiykwOVj8syV5hZ-2" vertex="1">
          <mxGeometry x="230" width="60" height="40" as="geometry">
            <mxRectangle width="60" height="40" as="alternateBounds" />
          </mxGeometry>
        </mxCell>
        <mxCell id="LV1jHeiykwOVj8syV5hZ-16" value="MEDICAL" style="text;strokeColor=none;align=center;fillColor=none;html=1;verticalAlign=middle;whiteSpace=wrap;rounded=0;" parent="_tiB8tEmEpVmkrLslOVU-1" vertex="1">
          <mxGeometry x="80" y="407" width="60" height="30" as="geometry" />
        </mxCell>
        <mxCell id="uJqX0hBABi6My97VCVzp-0" value="COURSE" style="text;strokeColor=none;align=center;fillColor=none;html=1;verticalAlign=middle;whiteSpace=wrap;rounded=0;" parent="_tiB8tEmEpVmkrLslOVU-1" vertex="1">
          <mxGeometry x="80" y="520" width="60" height="30" as="geometry" />
        </mxCell>
        <mxCell id="uJqX0hBABi6My97VCVzp-9" value="ATTENDS" style="text;strokeColor=none;align=center;fillColor=none;html=1;verticalAlign=middle;whiteSpace=wrap;rounded=0;" parent="_tiB8tEmEpVmkrLslOVU-1" vertex="1">
          <mxGeometry x="80" y="990" width="60" height="30" as="geometry" />
        </mxCell>
        <mxCell id="uJqX0hBABi6My97VCVzp-10" value="" style="shape=table;startSize=0;container=1;collapsible=0;childLayout=tableLayout;fontStyle=4" parent="_tiB8tEmEpVmkrLslOVU-1" vertex="1">
          <mxGeometry x="80" y="1020" width="240" height="40" as="geometry" />
        </mxCell>
        <mxCell id="uJqX0hBABi6My97VCVzp-11" value="" style="shape=tableRow;horizontal=0;startSize=0;swimlaneHead=0;swimlaneBody=0;strokeColor=inherit;top=0;left=0;bottom=0;right=0;collapsible=0;dropTarget=0;fillColor=none;points=[[0,0.5],[1,0.5]];portConstraint=eastwest;" parent="uJqX0hBABi6My97VCVzp-10" vertex="1">
          <mxGeometry width="240" height="40" as="geometry" />
        </mxCell>
        <mxCell id="uJqX0hBABi6My97VCVzp-13" value="" style="shape=partialRectangle;html=1;whiteSpace=wrap;connectable=0;strokeColor=inherit;overflow=hidden;fillColor=none;top=0;left=0;bottom=0;right=0;pointerEvents=1;" parent="uJqX0hBABi6My97VCVzp-11" vertex="1">
          <mxGeometry width="80" height="40" as="geometry">
            <mxRectangle width="80" height="40" as="alternateBounds" />
          </mxGeometry>
        </mxCell>
        <mxCell id="uJqX0hBABi6My97VCVzp-14" value="" style="shape=partialRectangle;html=1;whiteSpace=wrap;connectable=0;strokeColor=inherit;overflow=hidden;fillColor=none;top=0;left=0;bottom=0;right=0;pointerEvents=1;fontStyle=4" parent="uJqX0hBABi6My97VCVzp-11" vertex="1">
          <mxGeometry x="80" width="80" height="40" as="geometry">
            <mxRectangle width="80" height="40" as="alternateBounds" />
          </mxGeometry>
        </mxCell>
        <mxCell id="uJqX0hBABi6My97VCVzp-15" value="" style="shape=partialRectangle;html=1;whiteSpace=wrap;connectable=0;strokeColor=inherit;overflow=hidden;fillColor=none;top=0;left=0;bottom=0;right=0;pointerEvents=1;" parent="uJqX0hBABi6My97VCVzp-11" vertex="1">
          <mxGeometry x="160" width="80" height="40" as="geometry">
            <mxRectangle width="80" height="40" as="alternateBounds" />
          </mxGeometry>
        </mxCell>
        <mxCell id="uJqX0hBABi6My97VCVzp-19" value="LECTURER" style="text;strokeColor=none;align=center;fillColor=none;html=1;verticalAlign=middle;whiteSpace=wrap;rounded=0;" parent="_tiB8tEmEpVmkrLslOVU-1" vertex="1">
          <mxGeometry x="84" y="1140" width="60" height="30" as="geometry" />
        </mxCell>
        <mxCell id="uJqX0hBABi6My97VCVzp-20" value="" style="shape=table;startSize=0;container=1;collapsible=0;childLayout=tableLayout;" parent="_tiB8tEmEpVmkrLslOVU-1" vertex="1">
          <mxGeometry x="80" y="1169" width="610" height="40" as="geometry" />
        </mxCell>
        <mxCell id="uJqX0hBABi6My97VCVzp-21" value="" style="shape=tableRow;horizontal=0;startSize=0;swimlaneHead=0;swimlaneBody=0;strokeColor=inherit;top=0;left=0;bottom=0;right=0;collapsible=0;dropTarget=0;fillColor=none;points=[[0,0.5],[1,0.5]];portConstraint=eastwest;" parent="uJqX0hBABi6My97VCVzp-20" vertex="1">
          <mxGeometry width="610" height="40" as="geometry" />
        </mxCell>
        <mxCell id="uJqX0hBABi6My97VCVzp-22" value="Lec_id" style="shape=partialRectangle;html=1;whiteSpace=wrap;connectable=0;strokeColor=inherit;overflow=hidden;fillColor=none;top=0;left=0;bottom=0;right=0;pointerEvents=1;fontStyle=4" parent="uJqX0hBABi6My97VCVzp-21" vertex="1">
          <mxGeometry width="70" height="40" as="geometry">
            <mxRectangle width="70" height="40" as="alternateBounds" />
          </mxGeometry>
        </mxCell>
        <mxCell id="uJqX0hBABi6My97VCVzp-23" value="" style="shape=partialRectangle;html=1;whiteSpace=wrap;connectable=0;strokeColor=inherit;overflow=hidden;fillColor=none;top=0;left=0;bottom=0;right=0;pointerEvents=1;" parent="uJqX0hBABi6My97VCVzp-21" vertex="1">
          <mxGeometry x="70" width="50" height="40" as="geometry">
            <mxRectangle width="50" height="40" as="alternateBounds" />
          </mxGeometry>
        </mxCell>
        <mxCell id="uJqX0hBABi6My97VCVzp-24" value="" style="shape=partialRectangle;html=1;whiteSpace=wrap;connectable=0;strokeColor=inherit;overflow=hidden;fillColor=none;top=0;left=0;bottom=0;right=0;pointerEvents=1;" parent="uJqX0hBABi6My97VCVzp-21" vertex="1">
          <mxGeometry x="120" width="60" height="40" as="geometry">
            <mxRectangle width="60" height="40" as="alternateBounds" />
          </mxGeometry>
        </mxCell>
        <mxCell id="uJqX0hBABi6My97VCVzp-25" value="" style="shape=partialRectangle;html=1;whiteSpace=wrap;connectable=0;strokeColor=inherit;overflow=hidden;fillColor=none;top=0;left=0;bottom=0;right=0;pointerEvents=1;" parent="uJqX0hBABi6My97VCVzp-21" vertex="1">
          <mxGeometry x="180" width="70" height="40" as="geometry">
            <mxRectangle width="70" height="40" as="alternateBounds" />
          </mxGeometry>
        </mxCell>
        <mxCell id="uJqX0hBABi6My97VCVzp-26" value="" style="shape=partialRectangle;html=1;whiteSpace=wrap;connectable=0;strokeColor=inherit;overflow=hidden;fillColor=none;top=0;left=0;bottom=0;right=0;pointerEvents=1;" parent="uJqX0hBABi6My97VCVzp-21" vertex="1">
          <mxGeometry x="250" width="70" height="40" as="geometry">
            <mxRectangle width="70" height="40" as="alternateBounds" />
          </mxGeometry>
        </mxCell>
        <mxCell id="uJqX0hBABi6My97VCVzp-27" value="" style="shape=partialRectangle;html=1;whiteSpace=wrap;connectable=0;strokeColor=inherit;overflow=hidden;fillColor=none;top=0;left=0;bottom=0;right=0;pointerEvents=1;" parent="uJqX0hBABi6My97VCVzp-21" vertex="1">
          <mxGeometry x="320" width="80" height="40" as="geometry">
            <mxRectangle width="80" height="40" as="alternateBounds" />
          </mxGeometry>
        </mxCell>
        <mxCell id="uJqX0hBABi6My97VCVzp-28" value="" style="shape=partialRectangle;html=1;whiteSpace=wrap;connectable=0;strokeColor=inherit;overflow=hidden;fillColor=none;top=0;left=0;bottom=0;right=0;pointerEvents=1;" parent="uJqX0hBABi6My97VCVzp-21" vertex="1">
          <mxGeometry x="400" width="60" height="40" as="geometry">
            <mxRectangle width="60" height="40" as="alternateBounds" />
          </mxGeometry>
        </mxCell>
        <mxCell id="mmcW-JgOqtuN_uXGNvST-3" value="" style="shape=partialRectangle;html=1;whiteSpace=wrap;connectable=0;strokeColor=inherit;overflow=hidden;fillColor=none;top=0;left=0;bottom=0;right=0;pointerEvents=1;" parent="uJqX0hBABi6My97VCVzp-21" vertex="1">
          <mxGeometry x="460" width="90" height="40" as="geometry">
            <mxRectangle width="90" height="40" as="alternateBounds" />
          </mxGeometry>
        </mxCell>
        <mxCell id="mmcW-JgOqtuN_uXGNvST-2" value="" style="shape=partialRectangle;html=1;whiteSpace=wrap;connectable=0;strokeColor=inherit;overflow=hidden;fillColor=none;top=0;left=0;bottom=0;right=0;pointerEvents=1;" parent="uJqX0hBABi6My97VCVzp-21" vertex="1">
          <mxGeometry x="550" width="60" height="40" as="geometry">
            <mxRectangle width="60" height="40" as="alternateBounds" />
          </mxGeometry>
        </mxCell>
        <mxCell id="mmcW-JgOqtuN_uXGNvST-4" value="LECTURER_PHONE" style="text;strokeColor=none;align=center;fillColor=none;html=1;verticalAlign=middle;whiteSpace=wrap;rounded=0;" parent="_tiB8tEmEpVmkrLslOVU-1" vertex="1">
          <mxGeometry x="107" y="1279" width="60" height="30" as="geometry" />
        </mxCell>
        <mxCell id="mmcW-JgOqtuN_uXGNvST-5" value="" style="shape=table;startSize=0;container=1;collapsible=0;childLayout=tableLayout;" parent="_tiB8tEmEpVmkrLslOVU-1" vertex="1">
          <mxGeometry x="80" y="1310" width="120" height="40" as="geometry" />
        </mxCell>
        <mxCell id="mmcW-JgOqtuN_uXGNvST-6" value="" style="shape=tableRow;horizontal=0;startSize=0;swimlaneHead=0;swimlaneBody=0;strokeColor=inherit;top=0;left=0;bottom=0;right=0;collapsible=0;dropTarget=0;fillColor=none;points=[[0,0.5],[1,0.5]];portConstraint=eastwest;" parent="mmcW-JgOqtuN_uXGNvST-5" vertex="1">
          <mxGeometry width="120" height="40" as="geometry" />
        </mxCell>
        <mxCell id="mmcW-JgOqtuN_uXGNvST-7" value="&lt;u&gt;Lec_id&lt;/u&gt;" style="shape=partialRectangle;html=1;whiteSpace=wrap;connectable=0;strokeColor=inherit;overflow=hidden;fillColor=none;top=0;left=0;bottom=0;right=0;pointerEvents=1;" parent="mmcW-JgOqtuN_uXGNvST-6" vertex="1">
          <mxGeometry width="60" height="40" as="geometry">
            <mxRectangle width="60" height="40" as="alternateBounds" />
          </mxGeometry>
        </mxCell>
        <mxCell id="mmcW-JgOqtuN_uXGNvST-8" value="&lt;u&gt;Phone&lt;/u&gt;" style="shape=partialRectangle;html=1;whiteSpace=wrap;connectable=0;strokeColor=inherit;overflow=hidden;fillColor=none;top=0;left=0;bottom=0;right=0;pointerEvents=1;" parent="mmcW-JgOqtuN_uXGNvST-6" vertex="1">
          <mxGeometry x="60" width="60" height="40" as="geometry">
            <mxRectangle width="60" height="40" as="alternateBounds" />
          </mxGeometry>
        </mxCell>
        <mxCell id="mmcW-JgOqtuN_uXGNvST-9" value="ENROLLS_IN" style="text;strokeColor=none;align=center;fillColor=none;html=1;verticalAlign=middle;whiteSpace=wrap;rounded=0;" parent="_tiB8tEmEpVmkrLslOVU-1" vertex="1">
          <mxGeometry x="87" y="1400" width="60" height="30" as="geometry" />
        </mxCell>
        <mxCell id="mmcW-JgOqtuN_uXGNvST-10" value="" style="shape=table;startSize=0;container=1;collapsible=0;childLayout=tableLayout;" parent="_tiB8tEmEpVmkrLslOVU-1" vertex="1">
          <mxGeometry x="80" y="1430" width="395" height="40" as="geometry" />
        </mxCell>
        <mxCell id="mmcW-JgOqtuN_uXGNvST-11" value="" style="shape=tableRow;horizontal=0;startSize=0;swimlaneHead=0;swimlaneBody=0;strokeColor=inherit;top=0;left=0;bottom=0;right=0;collapsible=0;dropTarget=0;fillColor=none;points=[[0,0.5],[1,0.5]];portConstraint=eastwest;" parent="mmcW-JgOqtuN_uXGNvST-10" vertex="1">
          <mxGeometry width="395" height="40" as="geometry" />
        </mxCell>
        <mxCell id="mmcW-JgOqtuN_uXGNvST-12" value="&lt;u&gt;St_id&lt;/u&gt;" style="shape=partialRectangle;html=1;whiteSpace=wrap;connectable=0;strokeColor=inherit;overflow=hidden;fillColor=none;top=0;left=0;bottom=0;right=0;pointerEvents=1;" parent="mmcW-JgOqtuN_uXGNvST-11" vertex="1">
          <mxGeometry width="60" height="40" as="geometry">
            <mxRectangle width="60" height="40" as="alternateBounds" />
          </mxGeometry>
        </mxCell>
        <mxCell id="mmcW-JgOqtuN_uXGNvST-13" value="&lt;u&gt;C_code&lt;/u&gt;" style="shape=partialRectangle;html=1;whiteSpace=wrap;connectable=0;strokeColor=inherit;overflow=hidden;fillColor=none;top=0;left=0;bottom=0;right=0;pointerEvents=1;" parent="mmcW-JgOqtuN_uXGNvST-11" vertex="1">
          <mxGeometry x="60" width="60" height="40" as="geometry">
            <mxRectangle width="60" height="40" as="alternateBounds" />
          </mxGeometry>
        </mxCell>
        <mxCell id="mmcW-JgOqtuN_uXGNvST-16" value="Sem" style="shape=partialRectangle;html=1;whiteSpace=wrap;connectable=0;strokeColor=inherit;overflow=hidden;fillColor=none;top=0;left=0;bottom=0;right=0;pointerEvents=1;" parent="mmcW-JgOqtuN_uXGNvST-11" vertex="1">
          <mxGeometry x="120" width="60" height="40" as="geometry">
            <mxRectangle width="60" height="40" as="alternateBounds" />
          </mxGeometry>
        </mxCell>
        <mxCell id="8j82z1IWAl4MmmDvAMhX-0" value="Level" style="shape=partialRectangle;html=1;whiteSpace=wrap;connectable=0;strokeColor=inherit;overflow=hidden;fillColor=none;top=0;left=0;bottom=0;right=0;pointerEvents=1;" parent="mmcW-JgOqtuN_uXGNvST-11" vertex="1">
          <mxGeometry x="180" width="60" height="40" as="geometry">
            <mxRectangle width="60" height="40" as="alternateBounds" />
          </mxGeometry>
        </mxCell>
        <mxCell id="mmcW-JgOqtuN_uXGNvST-15" value="Academic_yr" style="shape=partialRectangle;html=1;whiteSpace=wrap;connectable=0;strokeColor=inherit;overflow=hidden;fillColor=none;top=0;left=0;bottom=0;right=0;pointerEvents=1;" parent="mmcW-JgOqtuN_uXGNvST-11" vertex="1">
          <mxGeometry x="240" width="85" height="40" as="geometry">
            <mxRectangle width="85" height="40" as="alternateBounds" />
          </mxGeometry>
        </mxCell>
        <mxCell id="mmcW-JgOqtuN_uXGNvST-14" value="Status" style="shape=partialRectangle;html=1;whiteSpace=wrap;connectable=0;strokeColor=inherit;overflow=hidden;fillColor=none;top=0;left=0;bottom=0;right=0;pointerEvents=1;" parent="mmcW-JgOqtuN_uXGNvST-11" vertex="1">
          <mxGeometry x="325" width="70" height="40" as="geometry">
            <mxRectangle width="70" height="40" as="alternateBounds" />
          </mxGeometry>
        </mxCell>
        <mxCell id="mmcW-JgOqtuN_uXGNvST-29" value="SESSION" style="text;html=1;align=left;verticalAlign=middle;resizable=0;points=[];autosize=1;strokeColor=none;fillColor=none;" parent="_tiB8tEmEpVmkrLslOVU-1" vertex="1">
          <mxGeometry x="80" y="710" width="80" height="30" as="geometry" />
        </mxCell>
        <mxCell id="mmcW-JgOqtuN_uXGNvST-30" value="" style="shape=table;startSize=0;container=1;collapsible=0;childLayout=tableLayout;" parent="_tiB8tEmEpVmkrLslOVU-1" vertex="1">
          <mxGeometry x="80" y="740" width="390" height="40" as="geometry" />
        </mxCell>
        <mxCell id="mmcW-JgOqtuN_uXGNvST-31" value="" style="shape=tableRow;horizontal=0;startSize=0;swimlaneHead=0;swimlaneBody=0;strokeColor=inherit;top=0;left=0;bottom=0;right=0;collapsible=0;dropTarget=0;fillColor=none;points=[[0,0.5],[1,0.5]];portConstraint=eastwest;" parent="mmcW-JgOqtuN_uXGNvST-30" vertex="1">
          <mxGeometry width="390" height="40" as="geometry" />
        </mxCell>
        <mxCell id="mmcW-JgOqtuN_uXGNvST-32" value="Session_id" style="shape=partialRectangle;html=1;whiteSpace=wrap;connectable=0;strokeColor=inherit;overflow=hidden;fillColor=none;top=0;left=0;bottom=0;right=0;pointerEvents=1;fontStyle=4" parent="mmcW-JgOqtuN_uXGNvST-31" vertex="1">
          <mxGeometry width="80" height="40" as="geometry">
            <mxRectangle width="80" height="40" as="alternateBounds" />
          </mxGeometry>
        </mxCell>
        <mxCell id="mmcW-JgOqtuN_uXGNvST-33" value="Type" style="shape=partialRectangle;html=1;whiteSpace=wrap;connectable=0;strokeColor=inherit;overflow=hidden;fillColor=none;top=0;left=0;bottom=0;right=0;pointerEvents=1;" parent="mmcW-JgOqtuN_uXGNvST-31" vertex="1">
          <mxGeometry x="80" width="70" height="40" as="geometry">
            <mxRectangle width="70" height="40" as="alternateBounds" />
          </mxGeometry>
        </mxCell>
        <mxCell id="mmcW-JgOqtuN_uXGNvST-34" value="Date" style="shape=partialRectangle;html=1;whiteSpace=wrap;connectable=0;strokeColor=inherit;overflow=hidden;fillColor=none;top=0;left=0;bottom=0;right=0;pointerEvents=1;" parent="mmcW-JgOqtuN_uXGNvST-31" vertex="1">
          <mxGeometry x="150" width="80" height="40" as="geometry">
            <mxRectangle width="80" height="40" as="alternateBounds" />
          </mxGeometry>
        </mxCell>
        <mxCell id="mmcW-JgOqtuN_uXGNvST-35" value="C_code" style="shape=partialRectangle;html=1;whiteSpace=wrap;connectable=0;strokeColor=inherit;overflow=hidden;fillColor=none;top=0;left=0;bottom=0;right=0;pointerEvents=1;" parent="mmcW-JgOqtuN_uXGNvST-31" vertex="1">
          <mxGeometry x="230" width="80" height="40" as="geometry">
            <mxRectangle width="80" height="40" as="alternateBounds" />
          </mxGeometry>
        </mxCell>
        <mxCell id="1ehpFSzwAOa-Z3eM5got-0" value="Week_no" style="shape=partialRectangle;html=1;whiteSpace=wrap;connectable=0;strokeColor=inherit;overflow=hidden;fillColor=none;top=0;left=0;bottom=0;right=0;pointerEvents=1;" vertex="1" parent="mmcW-JgOqtuN_uXGNvST-31">
          <mxGeometry x="310" width="80" height="40" as="geometry">
            <mxRectangle width="80" height="40" as="alternateBounds" />
          </mxGeometry>
        </mxCell>
        <mxCell id="mmcW-JgOqtuN_uXGNvST-61" style="edgeStyle=orthogonalEdgeStyle;rounded=0;orthogonalLoop=1;jettySize=auto;html=1;jumpStyle=arc;exitX=0.912;exitY=1.014;exitDx=0;exitDy=0;exitPerimeter=0;entryX=0.097;entryY=0.939;entryDx=0;entryDy=0;entryPerimeter=0;" parent="_tiB8tEmEpVmkrLslOVU-1" edge="1">
          <mxGeometry relative="1" as="geometry">
            <mxPoint x="142.07999999999998" y="80" as="targetPoint" />
            <mxPoint x="408.32000000000005" y="480.00000000000006" as="sourcePoint" />
            <Array as="points">
              <mxPoint x="410" y="480.44" />
              <mxPoint x="410" y="512.44" />
              <mxPoint x="480" y="512.44" />
              <mxPoint x="480" y="399.44" />
              <mxPoint x="50" y="399.44" />
              <mxPoint x="50" y="142.44" />
              <mxPoint x="142" y="142.44" />
            </Array>
          </mxGeometry>
        </mxCell>
        <mxCell id="mmcW-JgOqtuN_uXGNvST-64" style="edgeStyle=orthogonalEdgeStyle;rounded=0;orthogonalLoop=1;jettySize=auto;html=1;entryX=0.136;entryY=1.092;entryDx=0;entryDy=0;entryPerimeter=0;" parent="_tiB8tEmEpVmkrLslOVU-1" edge="1">
          <mxGeometry relative="1" as="geometry">
            <mxPoint x="100.17000000000004" y="590.0000000000001" as="targetPoint" />
            <mxPoint x="340" y="780" as="sourcePoint" />
            <Array as="points">
              <mxPoint x="340" y="800" />
              <mxPoint x="490" y="800" />
              <mxPoint x="490" y="666" />
              <mxPoint x="100" y="666" />
            </Array>
          </mxGeometry>
        </mxCell>
        <mxCell id="LxeMRQMI_kEU0yblfrC4-0" style="edgeStyle=orthogonalEdgeStyle;rounded=0;orthogonalLoop=1;jettySize=auto;html=1;entryX=0.025;entryY=1.062;entryDx=0;entryDy=0;entryPerimeter=0;" parent="_tiB8tEmEpVmkrLslOVU-1" edge="1">
          <mxGeometry relative="1" as="geometry">
            <mxPoint x="89.25" y="590.48" as="targetPoint" />
            <mxPoint x="170" y="1470" as="sourcePoint" />
            <Array as="points">
              <mxPoint x="170" y="1508" />
              <mxPoint x="40" y="1508" />
              <mxPoint x="40" y="668" />
              <mxPoint x="90" y="668" />
              <mxPoint x="90" y="590" />
              <mxPoint x="89" y="590" />
            </Array>
          </mxGeometry>
        </mxCell>
        <mxCell id="RA6WH5sdtOcbIVI1_QBT-0" style="edgeStyle=orthogonalEdgeStyle;rounded=0;orthogonalLoop=1;jettySize=auto;html=1;entryX=0.095;entryY=1.031;entryDx=0;entryDy=0;entryPerimeter=0;" parent="_tiB8tEmEpVmkrLslOVU-1" target="mmcW-JgOqtuN_uXGNvST-31" edge="1">
          <mxGeometry relative="1" as="geometry">
            <mxPoint x="110" y="790" as="targetPoint" />
            <mxPoint x="210" y="1060" as="sourcePoint" />
            <Array as="points">
              <mxPoint x="210" y="1100" />
              <mxPoint x="60" y="1100" />
              <mxPoint x="60" y="800" />
              <mxPoint x="110" y="800" />
            </Array>
          </mxGeometry>
        </mxCell>
        <mxCell id="RA6WH5sdtOcbIVI1_QBT-2" style="edgeStyle=orthogonalEdgeStyle;rounded=0;orthogonalLoop=1;jettySize=auto;html=1;entryX=0.063;entryY=0.975;entryDx=0;entryDy=0;entryPerimeter=0;jumpStyle=arc;" parent="_tiB8tEmEpVmkrLslOVU-1" edge="1">
          <mxGeometry relative="1" as="geometry">
            <mxPoint x="130.32" y="80" as="targetPoint" />
            <mxPoint x="120" y="1060" as="sourcePoint" />
            <Array as="points">
              <mxPoint x="120" y="1081" />
              <mxPoint x="30" y="1081" />
              <mxPoint x="30" y="131" />
              <mxPoint x="130" y="131" />
            </Array>
          </mxGeometry>
        </mxCell>
        <mxCell id="RA6WH5sdtOcbIVI1_QBT-5" style="edgeStyle=orthogonalEdgeStyle;rounded=0;orthogonalLoop=1;jettySize=auto;html=1;entryX=0.034;entryY=0.925;entryDx=0;entryDy=0;entryPerimeter=0;" parent="_tiB8tEmEpVmkrLslOVU-1" edge="1">
          <mxGeometry relative="1" as="geometry">
            <mxPoint x="100.7399999999999" y="1210" as="targetPoint" />
            <mxPoint x="120" y="1353" as="sourcePoint" />
            <Array as="points">
              <mxPoint x="120" y="1353" />
              <mxPoint x="120" y="1373" />
              <mxPoint x="60" y="1373" />
              <mxPoint x="60" y="1243" />
              <mxPoint x="101" y="1243" />
            </Array>
          </mxGeometry>
        </mxCell>
        <mxCell id="RA6WH5sdtOcbIVI1_QBT-6" style="edgeStyle=orthogonalEdgeStyle;rounded=0;orthogonalLoop=1;jettySize=auto;html=1;entryX=0.031;entryY=1.064;entryDx=0;entryDy=0;entryPerimeter=0;jumpStyle=arc;" parent="_tiB8tEmEpVmkrLslOVU-1" edge="1">
          <mxGeometry relative="1" as="geometry">
            <mxPoint x="119.83999999999997" y="80" as="targetPoint" />
            <mxPoint x="130" y="1470" as="sourcePoint" />
            <Array as="points">
              <mxPoint x="130" y="1487" />
              <mxPoint x="20" y="1487" />
              <mxPoint x="20" y="117" />
              <mxPoint x="120" y="117" />
            </Array>
          </mxGeometry>
        </mxCell>
        <mxCell id="RA6WH5sdtOcbIVI1_QBT-7" style="edgeStyle=orthogonalEdgeStyle;rounded=0;orthogonalLoop=1;jettySize=auto;html=1;entryX=0.081;entryY=0.969;entryDx=0;entryDy=0;entryPerimeter=0;jumpStyle=arc;" parent="_tiB8tEmEpVmkrLslOVU-1" target="uJqX0hBABi6My97VCVzp-21" edge="1">
          <mxGeometry relative="1" as="geometry">
            <mxPoint x="130" y="1250" as="targetPoint" />
            <Array as="points">
              <mxPoint x="340" y="610" />
              <mxPoint x="720" y="610" />
              <mxPoint x="720" y="1240" />
              <mxPoint x="129" y="1240" />
            </Array>
            <mxPoint x="340" y="590" as="sourcePoint" />
          </mxGeometry>
        </mxCell>
        <mxCell id="iK_z4xqluITd690mn7Fc-1" value="St_id" style="shape=partialRectangle;html=1;whiteSpace=wrap;connectable=0;strokeColor=inherit;overflow=hidden;fillColor=none;top=0;left=0;bottom=0;right=0;pointerEvents=1;fontStyle=4" parent="_tiB8tEmEpVmkrLslOVU-1" vertex="1">
          <mxGeometry x="80" y="1020" width="80" height="40" as="geometry">
            <mxRectangle width="80" height="40" as="alternateBounds" />
          </mxGeometry>
        </mxCell>
        <mxCell id="iK_z4xqluITd690mn7Fc-2" value="&lt;u&gt;Session_id&lt;/u&gt;" style="shape=partialRectangle;html=1;whiteSpace=wrap;connectable=0;strokeColor=inherit;overflow=hidden;fillColor=none;top=0;left=0;bottom=0;right=0;pointerEvents=1;" parent="_tiB8tEmEpVmkrLslOVU-1" vertex="1">
          <mxGeometry x="160" y="1020" width="80" height="40" as="geometry">
            <mxRectangle width="80" height="40" as="alternateBounds" />
          </mxGeometry>
        </mxCell>
        <mxCell id="iK_z4xqluITd690mn7Fc-3" value="Status" style="shape=partialRectangle;html=1;whiteSpace=wrap;connectable=0;strokeColor=inherit;overflow=hidden;fillColor=none;top=0;left=0;bottom=0;right=0;pointerEvents=1;" parent="_tiB8tEmEpVmkrLslOVU-1" vertex="1">
          <mxGeometry x="237.5" y="1020" width="80" height="40" as="geometry">
            <mxRectangle width="80" height="40" as="alternateBounds" />
          </mxGeometry>
        </mxCell>
        <mxCell id="HOm5d55l4YF25VSeq4_g-5" value="No" style="shape=partialRectangle;html=1;whiteSpace=wrap;connectable=0;strokeColor=inherit;overflow=hidden;fillColor=none;top=0;left=0;bottom=0;right=0;pointerEvents=1;" parent="_tiB8tEmEpVmkrLslOVU-1" vertex="1">
          <mxGeometry x="180" y="40" width="57" height="40" as="geometry">
            <mxRectangle width="57" height="40" as="alternateBounds" />
          </mxGeometry>
        </mxCell>
        <mxCell id="HOm5d55l4YF25VSeq4_g-8" value="S_name" style="shape=partialRectangle;html=1;whiteSpace=wrap;connectable=0;strokeColor=inherit;overflow=hidden;fillColor=none;top=0;left=0;bottom=0;right=0;pointerEvents=1;" parent="_tiB8tEmEpVmkrLslOVU-1" vertex="1">
          <mxGeometry x="367" y="40" width="59" height="40" as="geometry">
            <mxRectangle width="59" height="40" as="alternateBounds" />
          </mxGeometry>
        </mxCell>
        <mxCell id="HOm5d55l4YF25VSeq4_g-9" value="Email" style="shape=partialRectangle;html=1;whiteSpace=wrap;connectable=0;strokeColor=inherit;overflow=hidden;fillColor=none;top=0;left=0;bottom=0;right=0;pointerEvents=1;" parent="_tiB8tEmEpVmkrLslOVU-1" vertex="1">
          <mxGeometry x="440" y="40" width="69" height="40" as="geometry">
            <mxRectangle width="69" height="40" as="alternateBounds" />
          </mxGeometry>
        </mxCell>
        <mxCell id="HOm5d55l4YF25VSeq4_g-10" value="Nic" style="shape=partialRectangle;html=1;whiteSpace=wrap;connectable=0;strokeColor=inherit;overflow=hidden;fillColor=none;top=0;left=0;bottom=0;right=0;pointerEvents=1;" parent="_tiB8tEmEpVmkrLslOVU-1" vertex="1">
          <mxGeometry x="500" y="40" width="59" height="40" as="geometry">
            <mxRectangle width="59" height="40" as="alternateBounds" />
          </mxGeometry>
        </mxCell>
        <mxCell id="HOm5d55l4YF25VSeq4_g-11" value="Dpt_name" style="shape=partialRectangle;html=1;whiteSpace=wrap;connectable=0;strokeColor=inherit;overflow=hidden;fillColor=none;top=0;left=0;bottom=0;right=0;pointerEvents=1;" parent="_tiB8tEmEpVmkrLslOVU-1" vertex="1">
          <mxGeometry x="559" y="40" width="76" height="40" as="geometry">
            <mxRectangle width="76" height="40" as="alternateBounds" />
          </mxGeometry>
        </mxCell>
        <mxCell id="HOm5d55l4YF25VSeq4_g-12" value="Civit Status" style="shape=partialRectangle;html=1;whiteSpace=wrap;connectable=0;strokeColor=inherit;overflow=hidden;fillColor=none;top=0;left=0;bottom=0;right=0;pointerEvents=1;" parent="_tiB8tEmEpVmkrLslOVU-1" vertex="1">
          <mxGeometry x="640" y="40" width="71" height="40" as="geometry">
            <mxRectangle width="91" height="40" as="alternateBounds" />
          </mxGeometry>
        </mxCell>
        <mxCell id="HOm5d55l4YF25VSeq4_g-18" value="No" style="shape=partialRectangle;html=1;whiteSpace=wrap;connectable=0;strokeColor=inherit;overflow=hidden;fillColor=none;top=0;left=0;bottom=0;right=0;pointerEvents=1;" parent="_tiB8tEmEpVmkrLslOVU-1" vertex="1">
          <mxGeometry x="150" y="1169" width="60" height="40" as="geometry">
            <mxRectangle width="60" height="40" as="alternateBounds" />
          </mxGeometry>
        </mxCell>
        <mxCell id="HOm5d55l4YF25VSeq4_g-19" value="City" style="shape=partialRectangle;html=1;whiteSpace=wrap;connectable=0;strokeColor=inherit;overflow=hidden;fillColor=none;top=0;left=0;bottom=0;right=0;pointerEvents=1;" parent="_tiB8tEmEpVmkrLslOVU-1" vertex="1">
          <mxGeometry x="200" y="1169" width="60" height="40" as="geometry">
            <mxRectangle width="60" height="40" as="alternateBounds" />
          </mxGeometry>
        </mxCell>
        <mxCell id="HOm5d55l4YF25VSeq4_g-20" value="Street" style="shape=partialRectangle;html=1;whiteSpace=wrap;connectable=0;strokeColor=inherit;overflow=hidden;fillColor=none;top=0;left=0;bottom=0;right=0;pointerEvents=1;" parent="_tiB8tEmEpVmkrLslOVU-1" vertex="1">
          <mxGeometry x="260" y="1169" width="70" height="40" as="geometry">
            <mxRectangle width="60" height="40" as="alternateBounds" />
          </mxGeometry>
        </mxCell>
        <mxCell id="HOm5d55l4YF25VSeq4_g-21" value="L_name" style="shape=partialRectangle;html=1;whiteSpace=wrap;connectable=0;strokeColor=inherit;overflow=hidden;fillColor=none;top=0;left=0;bottom=0;right=0;pointerEvents=1;" parent="_tiB8tEmEpVmkrLslOVU-1" vertex="1">
          <mxGeometry x="340" y="1169" width="60" height="40" as="geometry">
            <mxRectangle width="60" height="40" as="alternateBounds" />
          </mxGeometry>
        </mxCell>
        <mxCell id="HOm5d55l4YF25VSeq4_g-22" value="Dpt_name" style="shape=partialRectangle;html=1;whiteSpace=wrap;connectable=0;strokeColor=inherit;overflow=hidden;fillColor=none;top=0;left=0;bottom=0;right=0;pointerEvents=1;" parent="_tiB8tEmEpVmkrLslOVU-1" vertex="1">
          <mxGeometry x="400" y="1170" width="80" height="40" as="geometry">
            <mxRectangle width="80" height="40" as="alternateBounds" />
          </mxGeometry>
        </mxCell>
        <mxCell id="HOm5d55l4YF25VSeq4_g-23" value="Nic" style="shape=partialRectangle;html=1;whiteSpace=wrap;connectable=0;strokeColor=inherit;overflow=hidden;fillColor=none;top=0;left=0;bottom=0;right=0;pointerEvents=1;" parent="_tiB8tEmEpVmkrLslOVU-1" vertex="1">
          <mxGeometry x="480" y="1170" width="50" height="40" as="geometry">
            <mxRectangle width="50" height="40" as="alternateBounds" />
          </mxGeometry>
        </mxCell>
        <mxCell id="HOm5d55l4YF25VSeq4_g-24" value="Education_lvl" style="shape=partialRectangle;html=1;whiteSpace=wrap;connectable=0;strokeColor=inherit;overflow=hidden;fillColor=none;top=0;left=0;bottom=0;right=0;pointerEvents=1;" parent="_tiB8tEmEpVmkrLslOVU-1" vertex="1">
          <mxGeometry x="530" y="1169" width="110" height="40" as="geometry">
            <mxRectangle width="110" height="40" as="alternateBounds" />
          </mxGeometry>
        </mxCell>
        <mxCell id="HOm5d55l4YF25VSeq4_g-25" value="Email" style="shape=partialRectangle;html=1;whiteSpace=wrap;connectable=0;strokeColor=inherit;overflow=hidden;fillColor=none;top=0;left=0;bottom=0;right=0;pointerEvents=1;" parent="_tiB8tEmEpVmkrLslOVU-1" vertex="1">
          <mxGeometry x="630" y="1170" width="60" height="40" as="geometry">
            <mxRectangle width="60" height="40" as="alternateBounds" />
          </mxGeometry>
        </mxCell>
        <mxCell id="J3m7LMkaWLujBNEeEa09-0" value="ADMIN" style="text;strokeColor=none;align=center;fillColor=none;html=1;verticalAlign=middle;whiteSpace=wrap;rounded=0;" parent="_tiB8tEmEpVmkrLslOVU-1" vertex="1">
          <mxGeometry x="64" y="1540" width="76" height="30" as="geometry" />
        </mxCell>
        <mxCell id="J3m7LMkaWLujBNEeEa09-2" value="DEAN" style="text;strokeColor=none;align=center;fillColor=none;html=1;verticalAlign=middle;whiteSpace=wrap;rounded=0;" parent="_tiB8tEmEpVmkrLslOVU-1" vertex="1">
          <mxGeometry x="610" y="1570" width="60" height="30" as="geometry" />
        </mxCell>
        <mxCell id="J3m7LMkaWLujBNEeEa09-3" value="TECH_OFFICER" style="text;strokeColor=none;align=center;fillColor=none;html=1;verticalAlign=middle;whiteSpace=wrap;rounded=0;" parent="_tiB8tEmEpVmkrLslOVU-1" vertex="1">
          <mxGeometry x="100" y="1780" width="60" height="30" as="geometry" />
        </mxCell>
        <mxCell id="J3m7LMkaWLujBNEeEa09-4" value="" style="shape=table;startSize=0;container=1;collapsible=0;childLayout=tableLayout;" parent="_tiB8tEmEpVmkrLslOVU-1" vertex="1">
          <mxGeometry x="80" y="1580" width="615" height="40" as="geometry" />
        </mxCell>
        <mxCell id="J3m7LMkaWLujBNEeEa09-5" value="" style="shape=tableRow;horizontal=0;startSize=0;swimlaneHead=0;swimlaneBody=0;strokeColor=inherit;top=0;left=0;bottom=0;right=0;collapsible=0;dropTarget=0;fillColor=none;points=[[0,0.5],[1,0.5]];portConstraint=eastwest;" parent="J3m7LMkaWLujBNEeEa09-4" vertex="1">
          <mxGeometry width="615" height="40" as="geometry" />
        </mxCell>
        <mxCell id="J3m7LMkaWLujBNEeEa09-6" value="&lt;u&gt;Admin_id&lt;/u&gt;" style="shape=partialRectangle;html=1;whiteSpace=wrap;connectable=0;strokeColor=inherit;overflow=hidden;fillColor=none;top=0;left=0;bottom=0;right=0;pointerEvents=1;" parent="J3m7LMkaWLujBNEeEa09-5" vertex="1">
          <mxGeometry width="77" height="40" as="geometry">
            <mxRectangle width="77" height="40" as="alternateBounds" />
          </mxGeometry>
        </mxCell>
        <mxCell id="J3m7LMkaWLujBNEeEa09-7" value="No" style="shape=partialRectangle;html=1;whiteSpace=wrap;connectable=0;strokeColor=inherit;overflow=hidden;fillColor=none;top=0;left=0;bottom=0;right=0;pointerEvents=1;" parent="J3m7LMkaWLujBNEeEa09-5" vertex="1">
          <mxGeometry x="77" width="56" height="40" as="geometry">
            <mxRectangle width="56" height="40" as="alternateBounds" />
          </mxGeometry>
        </mxCell>
        <mxCell id="J3m7LMkaWLujBNEeEa09-8" value="City" style="shape=partialRectangle;html=1;whiteSpace=wrap;connectable=0;strokeColor=inherit;overflow=hidden;fillColor=none;top=0;left=0;bottom=0;right=0;pointerEvents=1;" parent="J3m7LMkaWLujBNEeEa09-5" vertex="1">
          <mxGeometry x="133" width="55" height="40" as="geometry">
            <mxRectangle width="55" height="40" as="alternateBounds" />
          </mxGeometry>
        </mxCell>
        <mxCell id="J3m7LMkaWLujBNEeEa09-9" value="Street" style="shape=partialRectangle;html=1;whiteSpace=wrap;connectable=0;strokeColor=inherit;overflow=hidden;fillColor=none;top=0;left=0;bottom=0;right=0;pointerEvents=1;" parent="J3m7LMkaWLujBNEeEa09-5" vertex="1">
          <mxGeometry x="188" width="55" height="40" as="geometry">
            <mxRectangle width="55" height="40" as="alternateBounds" />
          </mxGeometry>
        </mxCell>
        <mxCell id="J3m7LMkaWLujBNEeEa09-10" value="A_name" style="shape=partialRectangle;html=1;whiteSpace=wrap;connectable=0;strokeColor=inherit;overflow=hidden;fillColor=none;top=0;left=0;bottom=0;right=0;pointerEvents=1;" parent="J3m7LMkaWLujBNEeEa09-5" vertex="1">
          <mxGeometry x="243" width="57" height="40" as="geometry">
            <mxRectangle width="57" height="40" as="alternateBounds" />
          </mxGeometry>
        </mxCell>
        <mxCell id="J3m7LMkaWLujBNEeEa09-13" value="A_nic" style="shape=partialRectangle;html=1;whiteSpace=wrap;connectable=0;strokeColor=inherit;overflow=hidden;fillColor=none;top=0;left=0;bottom=0;right=0;pointerEvents=1;" parent="J3m7LMkaWLujBNEeEa09-5" vertex="1">
          <mxGeometry x="300" width="55" height="40" as="geometry">
            <mxRectangle width="55" height="40" as="alternateBounds" />
          </mxGeometry>
        </mxCell>
        <mxCell id="J3m7LMkaWLujBNEeEa09-14" value="Phone" style="shape=partialRectangle;html=1;whiteSpace=wrap;connectable=0;strokeColor=inherit;overflow=hidden;fillColor=none;top=0;left=0;bottom=0;right=0;pointerEvents=1;" parent="J3m7LMkaWLujBNEeEa09-5" vertex="1">
          <mxGeometry x="355" width="55" height="40" as="geometry">
            <mxRectangle width="55" height="40" as="alternateBounds" />
          </mxGeometry>
        </mxCell>
        <mxCell id="J3m7LMkaWLujBNEeEa09-11" value="Email" style="shape=partialRectangle;html=1;whiteSpace=wrap;connectable=0;strokeColor=inherit;overflow=hidden;fillColor=none;top=0;left=0;bottom=0;right=0;pointerEvents=1;" parent="J3m7LMkaWLujBNEeEa09-5" vertex="1">
          <mxGeometry x="410" width="55" height="40" as="geometry">
            <mxRectangle width="55" height="40" as="alternateBounds" />
          </mxGeometry>
        </mxCell>
        <mxCell id="J3m7LMkaWLujBNEeEa09-12" value="Civil_status" style="shape=partialRectangle;html=1;whiteSpace=wrap;connectable=0;strokeColor=inherit;overflow=hidden;fillColor=none;top=0;left=0;bottom=0;right=0;pointerEvents=1;" parent="J3m7LMkaWLujBNEeEa09-5" vertex="1">
          <mxGeometry x="465" width="75" height="40" as="geometry">
            <mxRectangle width="75" height="40" as="alternateBounds" />
          </mxGeometry>
        </mxCell>
        <mxCell id="J3m7LMkaWLujBNEeEa09-15" value="Dpt_name" style="shape=partialRectangle;html=1;whiteSpace=wrap;connectable=0;strokeColor=inherit;overflow=hidden;fillColor=none;top=0;left=0;bottom=0;right=0;pointerEvents=1;" parent="J3m7LMkaWLujBNEeEa09-5" vertex="1">
          <mxGeometry x="540" width="75" height="40" as="geometry">
            <mxRectangle width="75" height="40" as="alternateBounds" />
          </mxGeometry>
        </mxCell>
        <mxCell id="J3m7LMkaWLujBNEeEa09-16" value="DEAN" style="text;strokeColor=none;align=center;fillColor=none;html=1;verticalAlign=middle;whiteSpace=wrap;rounded=0;" parent="_tiB8tEmEpVmkrLslOVU-1" vertex="1">
          <mxGeometry x="72" y="1660" width="60" height="30" as="geometry" />
        </mxCell>
        <mxCell id="J3m7LMkaWLujBNEeEa09-17" value="" style="shape=table;startSize=0;container=1;collapsible=0;childLayout=tableLayout;" parent="_tiB8tEmEpVmkrLslOVU-1" vertex="1">
          <mxGeometry x="80" y="1700" width="560" height="40" as="geometry" />
        </mxCell>
        <mxCell id="J3m7LMkaWLujBNEeEa09-18" value="" style="shape=tableRow;horizontal=0;startSize=0;swimlaneHead=0;swimlaneBody=0;strokeColor=inherit;top=0;left=0;bottom=0;right=0;collapsible=0;dropTarget=0;fillColor=none;points=[[0,0.5],[1,0.5]];portConstraint=eastwest;" parent="J3m7LMkaWLujBNEeEa09-17" vertex="1">
          <mxGeometry width="560" height="40" as="geometry" />
        </mxCell>
        <mxCell id="J3m7LMkaWLujBNEeEa09-19" value="&lt;u&gt;Dean_id&lt;/u&gt;" style="shape=partialRectangle;html=1;whiteSpace=wrap;connectable=0;strokeColor=inherit;overflow=hidden;fillColor=none;top=0;left=0;bottom=0;right=0;pointerEvents=1;" parent="J3m7LMkaWLujBNEeEa09-18" vertex="1">
          <mxGeometry width="60" height="40" as="geometry">
            <mxRectangle width="60" height="40" as="alternateBounds" />
          </mxGeometry>
        </mxCell>
        <mxCell id="J3m7LMkaWLujBNEeEa09-20" value="No" style="shape=partialRectangle;html=1;whiteSpace=wrap;connectable=0;strokeColor=inherit;overflow=hidden;fillColor=none;top=0;left=0;bottom=0;right=0;pointerEvents=1;" parent="J3m7LMkaWLujBNEeEa09-18" vertex="1">
          <mxGeometry x="60" width="60" height="40" as="geometry">
            <mxRectangle width="60" height="40" as="alternateBounds" />
          </mxGeometry>
        </mxCell>
        <mxCell id="J3m7LMkaWLujBNEeEa09-26" value="City" style="shape=partialRectangle;html=1;whiteSpace=wrap;connectable=0;strokeColor=inherit;overflow=hidden;fillColor=none;top=0;left=0;bottom=0;right=0;pointerEvents=1;" parent="J3m7LMkaWLujBNEeEa09-18" vertex="1">
          <mxGeometry x="120" width="60" height="40" as="geometry">
            <mxRectangle width="60" height="40" as="alternateBounds" />
          </mxGeometry>
        </mxCell>
        <mxCell id="J3m7LMkaWLujBNEeEa09-25" value="Street" style="shape=partialRectangle;html=1;whiteSpace=wrap;connectable=0;strokeColor=inherit;overflow=hidden;fillColor=none;top=0;left=0;bottom=0;right=0;pointerEvents=1;" parent="J3m7LMkaWLujBNEeEa09-18" vertex="1">
          <mxGeometry x="180" width="60" height="40" as="geometry">
            <mxRectangle width="60" height="40" as="alternateBounds" />
          </mxGeometry>
        </mxCell>
        <mxCell id="J3m7LMkaWLujBNEeEa09-27" value="D_name" style="shape=partialRectangle;html=1;whiteSpace=wrap;connectable=0;strokeColor=inherit;overflow=hidden;fillColor=none;top=0;left=0;bottom=0;right=0;pointerEvents=1;" parent="J3m7LMkaWLujBNEeEa09-18" vertex="1">
          <mxGeometry x="240" width="60" height="40" as="geometry">
            <mxRectangle width="60" height="40" as="alternateBounds" />
          </mxGeometry>
        </mxCell>
        <mxCell id="J3m7LMkaWLujBNEeEa09-24" value="Phone" style="shape=partialRectangle;html=1;whiteSpace=wrap;connectable=0;strokeColor=inherit;overflow=hidden;fillColor=none;top=0;left=0;bottom=0;right=0;pointerEvents=1;" parent="J3m7LMkaWLujBNEeEa09-18" vertex="1">
          <mxGeometry x="300" width="60" height="40" as="geometry">
            <mxRectangle width="60" height="40" as="alternateBounds" />
          </mxGeometry>
        </mxCell>
        <mxCell id="J3m7LMkaWLujBNEeEa09-23" value="D_nic" style="shape=partialRectangle;html=1;whiteSpace=wrap;connectable=0;strokeColor=inherit;overflow=hidden;fillColor=none;top=0;left=0;bottom=0;right=0;pointerEvents=1;" parent="J3m7LMkaWLujBNEeEa09-18" vertex="1">
          <mxGeometry x="360" width="60" height="40" as="geometry">
            <mxRectangle width="60" height="40" as="alternateBounds" />
          </mxGeometry>
        </mxCell>
        <mxCell id="J3m7LMkaWLujBNEeEa09-22" value="Email" style="shape=partialRectangle;html=1;whiteSpace=wrap;connectable=0;strokeColor=inherit;overflow=hidden;fillColor=none;top=0;left=0;bottom=0;right=0;pointerEvents=1;" parent="J3m7LMkaWLujBNEeEa09-18" vertex="1">
          <mxGeometry x="420" width="60" height="40" as="geometry">
            <mxRectangle width="60" height="40" as="alternateBounds" />
          </mxGeometry>
        </mxCell>
        <mxCell id="J3m7LMkaWLujBNEeEa09-21" value="Civil_status" style="shape=partialRectangle;html=1;whiteSpace=wrap;connectable=0;strokeColor=inherit;overflow=hidden;fillColor=none;top=0;left=0;bottom=0;right=0;pointerEvents=1;" parent="J3m7LMkaWLujBNEeEa09-18" vertex="1">
          <mxGeometry x="480" width="80" height="40" as="geometry">
            <mxRectangle width="80" height="40" as="alternateBounds" />
          </mxGeometry>
        </mxCell>
        <mxCell id="J3m7LMkaWLujBNEeEa09-32" value="" style="shape=table;startSize=0;container=1;collapsible=0;childLayout=tableLayout;" parent="_tiB8tEmEpVmkrLslOVU-1" vertex="1">
          <mxGeometry x="80" y="1820" width="500" height="40" as="geometry" />
        </mxCell>
        <mxCell id="J3m7LMkaWLujBNEeEa09-33" value="" style="shape=tableRow;horizontal=0;startSize=0;swimlaneHead=0;swimlaneBody=0;strokeColor=inherit;top=0;left=0;bottom=0;right=0;collapsible=0;dropTarget=0;fillColor=none;points=[[0,0.5],[1,0.5]];portConstraint=eastwest;" parent="J3m7LMkaWLujBNEeEa09-32" vertex="1">
          <mxGeometry width="500" height="40" as="geometry" />
        </mxCell>
        <mxCell id="J3m7LMkaWLujBNEeEa09-34" value="&lt;u&gt;Tech_id&lt;/u&gt;" style="shape=partialRectangle;html=1;whiteSpace=wrap;connectable=0;strokeColor=inherit;overflow=hidden;fillColor=none;top=0;left=0;bottom=0;right=0;pointerEvents=1;" parent="J3m7LMkaWLujBNEeEa09-33" vertex="1">
          <mxGeometry width="60" height="40" as="geometry">
            <mxRectangle width="60" height="40" as="alternateBounds" />
          </mxGeometry>
        </mxCell>
        <mxCell id="J3m7LMkaWLujBNEeEa09-35" value="No" style="shape=partialRectangle;html=1;whiteSpace=wrap;connectable=0;strokeColor=inherit;overflow=hidden;fillColor=none;top=0;left=0;bottom=0;right=0;pointerEvents=1;" parent="J3m7LMkaWLujBNEeEa09-33" vertex="1">
          <mxGeometry x="60" width="60" height="40" as="geometry">
            <mxRectangle width="60" height="40" as="alternateBounds" />
          </mxGeometry>
        </mxCell>
        <mxCell id="J3m7LMkaWLujBNEeEa09-36" value="City" style="shape=partialRectangle;html=1;whiteSpace=wrap;connectable=0;strokeColor=inherit;overflow=hidden;fillColor=none;top=0;left=0;bottom=0;right=0;pointerEvents=1;" parent="J3m7LMkaWLujBNEeEa09-33" vertex="1">
          <mxGeometry x="120" width="60" height="40" as="geometry">
            <mxRectangle width="60" height="40" as="alternateBounds" />
          </mxGeometry>
        </mxCell>
        <mxCell id="J3m7LMkaWLujBNEeEa09-37" value="Street" style="shape=partialRectangle;html=1;whiteSpace=wrap;connectable=0;strokeColor=inherit;overflow=hidden;fillColor=none;top=0;left=0;bottom=0;right=0;pointerEvents=1;" parent="J3m7LMkaWLujBNEeEa09-33" vertex="1">
          <mxGeometry x="180" width="60" height="40" as="geometry">
            <mxRectangle width="60" height="40" as="alternateBounds" />
          </mxGeometry>
        </mxCell>
        <mxCell id="J3m7LMkaWLujBNEeEa09-38" value="T_name" style="shape=partialRectangle;html=1;whiteSpace=wrap;connectable=0;strokeColor=inherit;overflow=hidden;fillColor=none;top=0;left=0;bottom=0;right=0;pointerEvents=1;" parent="J3m7LMkaWLujBNEeEa09-33" vertex="1">
          <mxGeometry x="240" width="60" height="40" as="geometry">
            <mxRectangle width="60" height="40" as="alternateBounds" />
          </mxGeometry>
        </mxCell>
        <mxCell id="J3m7LMkaWLujBNEeEa09-40" value="T_nic" style="shape=partialRectangle;html=1;whiteSpace=wrap;connectable=0;strokeColor=inherit;overflow=hidden;fillColor=none;top=0;left=0;bottom=0;right=0;pointerEvents=1;" parent="J3m7LMkaWLujBNEeEa09-33" vertex="1">
          <mxGeometry x="300" width="60" height="40" as="geometry">
            <mxRectangle width="60" height="40" as="alternateBounds" />
          </mxGeometry>
        </mxCell>
        <mxCell id="J3m7LMkaWLujBNEeEa09-41" value="Email" style="shape=partialRectangle;html=1;whiteSpace=wrap;connectable=0;strokeColor=inherit;overflow=hidden;fillColor=none;top=0;left=0;bottom=0;right=0;pointerEvents=1;" parent="J3m7LMkaWLujBNEeEa09-33" vertex="1">
          <mxGeometry x="360" width="60" height="40" as="geometry">
            <mxRectangle width="60" height="40" as="alternateBounds" />
          </mxGeometry>
        </mxCell>
        <mxCell id="J3m7LMkaWLujBNEeEa09-42" value="Civil_status" style="shape=partialRectangle;html=1;whiteSpace=wrap;connectable=0;strokeColor=inherit;overflow=hidden;fillColor=none;top=0;left=0;bottom=0;right=0;pointerEvents=1;" parent="J3m7LMkaWLujBNEeEa09-33" vertex="1">
          <mxGeometry x="420" width="80" height="40" as="geometry">
            <mxRectangle width="80" height="40" as="alternateBounds" />
          </mxGeometry>
        </mxCell>
        <mxCell id="J3m7LMkaWLujBNEeEa09-43" value="TECH_OFFICER_PHONE" style="text;strokeColor=none;align=center;fillColor=none;html=1;verticalAlign=middle;whiteSpace=wrap;rounded=0;" parent="_tiB8tEmEpVmkrLslOVU-1" vertex="1">
          <mxGeometry x="90" y="1890" width="130" height="30" as="geometry" />
        </mxCell>
        <mxCell id="J3m7LMkaWLujBNEeEa09-45" value="" style="shape=table;startSize=0;container=1;collapsible=0;childLayout=tableLayout;" parent="_tiB8tEmEpVmkrLslOVU-1" vertex="1">
          <mxGeometry x="80" y="1930" width="120" height="40" as="geometry" />
        </mxCell>
        <mxCell id="J3m7LMkaWLujBNEeEa09-46" value="" style="shape=tableRow;horizontal=0;startSize=0;swimlaneHead=0;swimlaneBody=0;strokeColor=inherit;top=0;left=0;bottom=0;right=0;collapsible=0;dropTarget=0;fillColor=none;points=[[0,0.5],[1,0.5]];portConstraint=eastwest;" parent="J3m7LMkaWLujBNEeEa09-45" vertex="1">
          <mxGeometry width="120" height="40" as="geometry" />
        </mxCell>
        <mxCell id="J3m7LMkaWLujBNEeEa09-47" value="&lt;u&gt;Tech_id&lt;/u&gt;" style="shape=partialRectangle;html=1;whiteSpace=wrap;connectable=0;strokeColor=inherit;overflow=hidden;fillColor=none;top=0;left=0;bottom=0;right=0;pointerEvents=1;" parent="J3m7LMkaWLujBNEeEa09-46" vertex="1">
          <mxGeometry width="60" height="40" as="geometry">
            <mxRectangle width="60" height="40" as="alternateBounds" />
          </mxGeometry>
        </mxCell>
        <mxCell id="J3m7LMkaWLujBNEeEa09-48" value="&lt;u&gt;Phone&lt;/u&gt;" style="shape=partialRectangle;html=1;whiteSpace=wrap;connectable=0;strokeColor=inherit;overflow=hidden;fillColor=none;top=0;left=0;bottom=0;right=0;pointerEvents=1;" parent="J3m7LMkaWLujBNEeEa09-46" vertex="1">
          <mxGeometry x="60" width="60" height="40" as="geometry">
            <mxRectangle width="60" height="40" as="alternateBounds" />
          </mxGeometry>
        </mxCell>
        <mxCell id="J3m7LMkaWLujBNEeEa09-55" style="edgeStyle=orthogonalEdgeStyle;rounded=0;orthogonalLoop=1;jettySize=auto;html=1;entryX=0.046;entryY=1.1;entryDx=0;entryDy=0;entryPerimeter=0;" parent="_tiB8tEmEpVmkrLslOVU-1" source="J3m7LMkaWLujBNEeEa09-46" target="J3m7LMkaWLujBNEeEa09-33" edge="1">
          <mxGeometry relative="1" as="geometry">
            <mxPoint x="40" y="1900" as="targetPoint" />
            <Array as="points">
              <mxPoint x="110" y="1990" />
              <mxPoint x="40" y="1990" />
              <mxPoint x="40" y="1886" />
              <mxPoint x="103" y="1886" />
            </Array>
          </mxGeometry>
        </mxCell>
      </root>
    </mxGraphModel>
  </diagram>
</mxfile>
